<?xml version="1.0" encoding="utf-8"?>
<!-- Generator: Adobe Illustrator 16.0.0, SVG Export Plug-In . SVG Version: 6.00 Build 0)  -->
<!DOCTYPE svg PUBLIC "-//W3C//DTD SVG 1.1//EN" "http://www.w3.org/Graphics/SVG/1.1/DTD/svg11.dtd">
<svg version="1.1" id="Layer_1" xmlns="http://www.w3.org/2000/svg" xmlns:xlink="http://www.w3.org/1999/xlink" x="0px" y="0px"
	 width="500px" height="200px" viewBox="0 0 500 200" enable-background="new 0 0 500 200" xml:space="preserve">
<g>
	<g>
		<g>
			<g>
				<path fill="#131326" d="M69.613,66.002v39.267c0,13.435-6.483,21.374-25.95,21.374c-19.523,0-26.039-7.939-26.039-21.374V77.667
					c-0.252-6.544-5.613-11.804-12.194-11.804v7.623c2.383,0,4.279,1.854,4.515,4.181v30.281c0,15.57,12.202,26.634,33.718,26.634
					c21.484,0,33.645-11.063,33.645-26.634V66.002H69.613z"/>
				<path fill="#131326" d="M293.13,125.536v-18.401c0-2.525,2.147-4.6,4.637-4.648h33.515v-7.752h-33.629
					c-1.627,0.049-3.132,0.378-4.522,0.98V73.551h54.714v-7.712h-62.482v67.408h64.752v-7.711H293.13z"/>
			</g>
		</g>
		<path fill="#131326" d="M490.867,126.008c-1.854,1.48-4.49,1.188-6.102-0.521l-14.739-18.727
			c11.015-0.337,19.824-9.359,19.824-20.43c0-11.332-9.177-20.491-20.491-20.491h-49.915v67.408h7.72l0.074-21.963
			c0.081-2.449,2.146-4.49,4.652-4.49l28.391,0.008l18.441,23.42c4.237,5.011,11.689,5.856,16.879,1.773L490.867,126.008z
			 M431.81,99.603c-1.627,0-3.156,0.333-4.588,0.911l-0.058-27.397l42.235-0.017c7.329,0,13.252,5.91,13.252,13.248
			c0,7.333-5.923,13.28-13.252,13.28L431.81,99.603z"/>
		<path fill="#131326" d="M207.862,98.415c4.336-3.303,7.183-8.517,7.183-14.423c0-9.99-8.11-18.128-18.132-18.128l-50.427-0.024
			v67.408h50.264c10.591,0,19.182-8.606,19.182-19.229C215.932,107.583,212.734,101.9,207.862,98.415z M154.189,73.116l42.756,0.049
			c5.987,0,10.835,4.86,10.835,10.859c0,5.963-4.848,10.815-10.835,10.815h-38.721c-1.407,0.098-2.79,0.423-4.035,0.964V73.116z
			 M196.75,126.008l-42.561-0.049v-19.116c0.032-2.547,2.147-4.719,4.686-4.719l37.875-0.008c6.589,0,11.925,5.336,11.925,11.901
			C208.675,120.655,203.339,126.008,196.75,126.008z"/>
	</g>
</g>
<g>
</g>
<g>
</g>
<g>
</g>
<g>
</g>
<g>
</g>
<g>
</g>
</svg>
