<?xml version="1.0" encoding="utf-8"?>
<!-- Generator: Adobe Illustrator 16.0.0, SVG Export Plug-In . SVG Version: 6.00 Build 0)  -->
<!DOCTYPE svg PUBLIC "-//W3C//DTD SVG 1.1//EN" "http://www.w3.org/Graphics/SVG/1.1/DTD/svg11.dtd">
<svg version="1.1" id="Layer_1" xmlns="http://www.w3.org/2000/svg" xmlns:xlink="http://www.w3.org/1999/xlink" x="0px" y="0px"
	 width="410px" height="60px" viewBox="0 0 410 60" enable-background="new 0 0 410 60" xml:space="preserve">
<path d="M75.09,3.54h-5.726c-0.482,0-0.784,0.301-0.784,0.783v36.346h-0.362L58.454,4.263c-0.181-0.542-0.482-0.784-1.085-0.784
	h-8.197c-0.482,0-0.784,0.302-0.784,0.784v51.054c0,0.482,0.301,0.783,0.784,0.783h5.726c0.482,0,0.784-0.301,0.784-0.783V18.97
	h0.482L66.29,55.377c0.181,0.542,0.482,0.783,1.085,0.783h7.655c0.482,0,0.784-0.301,0.784-0.783V4.263
	C75.813,3.841,75.512,3.54,75.09,3.54L75.09,3.54z M21.807,25.661l-3.134-1.266c-4.159-1.627-5.124-3.074-5.124-7.957
	c0-4.34,1.567-6.329,4.822-6.329c3.436,0,4.822,2.411,4.942,6.751c0,0.482,0.361,0.724,0.844,0.603l6.208-0.904
	c0.482-0.181,0.723-0.361,0.723-0.844C30.547,7.458,26.81,2.816,18.13,2.816S5.351,7.759,5.351,16.8
	c0,8.197,2.17,11.995,9.463,14.828l3.195,1.266c4.099,1.628,5.184,3.496,5.184,9.102c0,5.727-1.627,7.535-4.943,7.535
	c-3.556,0-5.183-2.171-5.425-7.716c0-0.482-0.301-0.783-0.844-0.723l-6.57,1.085c-0.482,0.06-0.603,0.361-0.603,0.844
	c0.241,9.222,4.641,13.803,13.14,13.803c10.006,0,13.442-5.425,13.442-15.792C31.451,32.05,28.738,28.373,21.807,25.661z
	 M159.416,32.592c3.918-2.229,6.269-6.569,6.269-13.441c0-11.512-5.666-15.611-15.009-15.611h-10.608
	c-0.482,0-0.784,0.301-0.784,0.783v51.054c0,0.482,0.302,0.783,0.784,0.783h6.751c0.482,0,0.784-0.301,0.784-0.783V35.063
	c0-0.301,0.181-0.481,0.482-0.481h3.918l6.45,20.976c0.181,0.361,0.361,0.542,0.844,0.542h7.173c0.361,0,0.542-0.361,0.361-0.783
	L159.416,32.592z M150.736,27.288h-2.712c-0.301,0-0.482-0.181-0.482-0.482V11.496c0-0.301,0.181-0.482,0.482-0.482h2.712
	c4.641,0,6.63,1.929,6.63,8.137C157.367,25.42,155.377,27.288,150.736,27.288z M185.093,25.661l-3.195-1.266
	c-4.159-1.627-5.123-3.074-5.123-7.957c0-4.34,1.567-6.329,4.822-6.329c3.375,0,4.822,2.411,4.943,6.751
	c0,0.482,0.362,0.724,0.844,0.603l6.208-0.904c0.482-0.181,0.723-0.361,0.723-0.844c-0.482-8.257-4.28-12.898-12.959-12.898
	c-8.68,0-12.778,4.943-12.778,13.984c0,8.197,2.169,11.995,9.463,14.828l3.195,1.266c4.099,1.628,5.184,3.496,5.184,9.102
	c0,5.727-1.627,7.535-4.942,7.535c-3.556,0-5.184-2.171-5.425-7.716c0-0.482-0.302-0.783-0.844-0.723l-6.51,1.085
	c-0.482,0.06-0.603,0.361-0.603,0.844c0.241,9.222,4.641,13.803,13.14,13.803c10.005,0,13.441-5.425,13.441-15.792
	C194.677,32.05,191.965,28.373,185.093,25.661z M135.125,3.54h-21.579c-0.482,0-0.783,0.301-0.783,0.783v51.054
	c0,0.482,0.301,0.783,0.783,0.783h21.579c0.482,0,0.783-0.301,0.783-0.783v-5.968c0-0.481-0.301-0.783-0.783-0.783h-13.623
	c-0.301,0-0.482-0.181-0.482-0.482V33.737c0-0.301,0.181-0.481,0.482-0.481h11.754c0.482,0,0.784-0.302,0.784-0.784v-5.967
	c0-0.482-0.302-0.783-0.784-0.783h-11.754c-0.301,0-0.482-0.181-0.482-0.482V11.375c0-0.301,0.181-0.482,0.482-0.482h13.623
	c0.482,0,0.783-0.301,0.783-0.784V4.263C135.848,3.841,135.547,3.54,135.125,3.54L135.125,3.54z M42.481,3.54H35.73
	c-0.482,0-0.783,0.301-0.783,0.783v51.054c0,0.482,0.301,0.783,0.783,0.783h6.751c0.482,0,0.784-0.301,0.784-0.783V4.263
	C43.265,3.841,42.963,3.54,42.481,3.54L42.481,3.54z M107.037,3.54h-5.727c-0.482,0-0.784,0.301-0.784,0.783v36.346h-0.361
	L90.4,4.263c-0.181-0.542-0.482-0.784-1.085-0.784h-8.198c-0.482,0-0.784,0.302-0.784,0.784v51.054c0,0.482,0.302,0.783,0.784,0.783
	h5.727c0.482,0,0.783-0.301,0.783-0.783V18.97h0.482l10.187,36.346c0.181,0.543,0.482,0.783,1.085,0.783h7.655
	c0.482,0,0.783-0.301,0.783-0.783V4.263C107.82,3.841,107.458,3.54,107.037,3.54L107.037,3.54z M332.105,3.54H319.93
	c-0.481,0-0.783,0.301-0.783,0.783v51.054c0,0.482,0.302,0.783,0.783,0.783h12.176c6.872,0,10.91-2.772,12.779-8.438
	c0.903-2.833,1.326-6.449,1.326-17.902s-0.362-15.009-1.326-17.902C343.016,6.312,338.978,3.54,332.105,3.54z M336.807,44.829
	c-0.903,2.651-2.651,3.797-5.545,3.797h-3.375c-0.302,0-0.482-0.181-0.482-0.482V11.496c0-0.301,0.181-0.482,0.482-0.482h3.314
	c2.954,0,4.642,1.146,5.546,3.797c0.603,1.929,0.904,4.46,0.904,15.009C337.711,40.368,337.41,42.899,336.807,44.829z M372.551,3.54
	h-21.579c-0.481,0-0.783,0.301-0.783,0.783v51.054c0,0.482,0.302,0.783,0.783,0.783h21.579c0.482,0,0.784-0.301,0.784-0.783v-5.968
	c0-0.481-0.302-0.783-0.784-0.783h-13.622c-0.302,0-0.482-0.181-0.482-0.482V33.737c0-0.301,0.181-0.481,0.482-0.481h11.754
	c0.481,0,0.783-0.302,0.783-0.784v-5.967c0-0.482-0.302-0.783-0.783-0.783h-11.754c-0.302,0-0.482-0.181-0.482-0.482V11.375
	c0-0.301,0.181-0.482,0.482-0.482h13.622c0.482,0,0.784-0.301,0.784-0.784V4.263C373.335,3.841,373.033,3.54,372.551,3.54
	L372.551,3.54z M404.738,55.377l-7.414-22.724c3.918-2.231,6.269-6.571,6.269-13.442c0-11.513-5.666-15.611-15.009-15.611h-10.608
	c-0.482,0-0.784,0.301-0.784,0.783v51.053c0,0.482,0.302,0.784,0.784,0.784h6.751c0.481,0,0.783-0.302,0.783-0.784V35.063
	c0-0.301,0.182-0.481,0.482-0.481h3.918l6.449,20.976c0.182,0.361,0.362,0.542,0.844,0.542h7.174
	C404.738,56.1,404.919,55.738,404.738,55.377L404.738,55.377z M388.645,27.288h-2.713c-0.301,0-0.482-0.181-0.482-0.482V11.496
	c0-0.301,0.182-0.482,0.482-0.482h2.713c4.641,0,6.63,1.929,6.63,8.137C395.274,25.42,393.285,27.288,388.645,27.288z
	 M305.645,4.263c-0.061-0.482-0.361-0.784-0.844-0.784h-6.51c-0.482,0-0.723,0.302-0.844,0.784l-11.393,51.054
	c-0.06,0.482,0.182,0.783,0.603,0.783h6.57c0.543,0,0.784-0.301,0.845-0.783l2.109-10.608h10.428l2.109,10.608
	c0.061,0.482,0.302,0.783,0.844,0.783h6.57c0.482,0,0.724-0.301,0.603-0.783L305.645,4.263L305.645,4.263z M297.507,37.776
	l3.858-19.59h0.241l3.736,19.59H297.507z M252.06,3.54h-6.751c-0.482,0-0.783,0.301-0.783,0.783v20.734
	c0,0.302-0.181,0.483-0.482,0.483h-8.921c-0.301,0-0.482-0.181-0.482-0.483V4.263c0-0.482-0.301-0.784-0.783-0.784h-6.631
	c-0.481,0-0.783,0.302-0.783,0.784v51.054c0,0.482,0.302,0.783,0.783,0.783h6.751c0.482,0,0.784-0.301,0.784-0.783v-21.88
	c0-0.302,0.181-0.482,0.481-0.482h8.861c0.301,0,0.481,0.181,0.481,0.482v21.88c0,0.482,0.302,0.783,0.784,0.783h6.751
	c0.481,0,0.783-0.301,0.783-0.783V4.263C252.843,3.841,252.542,3.54,252.06,3.54L252.06,3.54z M277.616,32.592
	c3.918-2.229,6.269-6.569,6.269-13.441c0-11.512-5.666-15.611-15.009-15.611h-10.608c-0.481,0-0.783,0.301-0.783,0.783v51.054
	c0,0.482,0.302,0.783,0.783,0.783h6.751c0.482,0,0.784-0.301,0.784-0.783V35.063c0-0.301,0.181-0.481,0.481-0.481h3.918l6.45,20.976
	c0.181,0.361,0.361,0.542,0.844,0.542h7.173c0.361,0,0.542-0.361,0.361-0.783L277.616,32.592z M268.937,27.288h-2.712
	c-0.302,0-0.482-0.181-0.482-0.482V11.496c0-0.301,0.181-0.482,0.482-0.482h2.712c4.642,0,6.631,1.929,6.631,8.137
	C275.627,25.42,273.578,27.288,268.937,27.288z M210.771,10.351c3.015,0,4.581,1.929,4.822,6.449c0,0.542,0.361,0.784,0.845,0.723
	l6.268-1.085c0.482-0.06,0.604-0.482,0.542-0.904c-0.481-8.86-5.183-12.718-12.718-12.718c-6.449,0-10.307,3.014-11.934,8.077
	c-0.724,2.17-1.025,4.34-1.025,18.927c0,14.647,0.301,16.817,1.025,18.987c1.627,5.003,5.485,8.077,11.934,8.077
	c7.535,0,12.236-3.857,12.718-12.598c0.062-0.482-0.06-0.845-0.542-0.904l-6.268-1.085c-0.483-0.061-0.845,0.181-0.845,0.724
	c-0.241,4.46-1.748,6.449-4.822,6.449c-2.351,0-3.556-1.024-4.159-2.953c-0.361-1.267-0.542-2.352-0.542-16.576
	c0-14.226,0.181-15.31,0.542-16.576C207.215,11.315,208.42,10.351,210.771,10.351z"/>
<g>
</g>
<g>
</g>
<g>
</g>
<g>
</g>
<g>
</g>
<g>
</g>
</svg>
