<?xml version="1.0" encoding="utf-8"?>
<!-- Generator: Adobe Illustrator 16.0.0, SVG Export Plug-In . SVG Version: 6.00 Build 0)  -->
<!DOCTYPE svg PUBLIC "-//W3C//DTD SVG 1.1//EN" "http://www.w3.org/Graphics/SVG/1.1/DTD/svg11.dtd">
<svg version="1.1" id="Layer_1" xmlns="http://www.w3.org/2000/svg" xmlns:xlink="http://www.w3.org/1999/xlink" x="0px" y="0px"
	 width="612px" height="612px" viewBox="0 0 612 612" enable-background="new 0 0 612 612" xml:space="preserve">
<path fill-rule="evenodd" clip-rule="evenodd" fill="#020202" d="M193.515,129.458c5.51-11.061,11.785-21.554,19.476-31.114
	c33.732-41.934,77.417-64.963,131.199-68.171c82.622-4.929,157.748,48.093,180.593,127.152c5.148,17.819,7.374,36.001,6.335,54.534
	c-0.149,2.674,0.569,3.871,3.166,5.104c38.448,18.25,61.981,48.185,68.047,90.473c7.84,54.672-25.871,107.359-78.903,124.893
	c-12.072,3.991-24.472,6.056-37.215,6.047c-119.177-0.079-238.354-0.102-357.531-0.228c-34.44-0.036-64.422-11.562-88.715-36.255
	c-53.129-54.002-42.509-141.879,21.917-182.305c2.559-1.605,2.985-2.909,2.223-5.737c-12.109-44.94,17.734-91.622,63.503-99.657
	c23.255-4.082,44.535,0.481,63.885,14.023C192.09,128.634,192.734,128.981,193.515,129.458z M355.56,277.008
	c1.802-1.567,3.532-3.115,5.31-4.607c13.512-11.346,28.826-16.496,46.431-13.003c14.921,2.962,26.889,16.108,28.25,30.579
	c1.504,15.988-6.859,30.126-21.601,36.096c-10.188,4.127-20.578,4.043-30.943,0.581c-16.908-5.648-29.456-17.005-40.514-30.539
	c-12.806-15.673-25.312-31.661-39.655-45.966c-27.567-27.493-60.499-38.636-99.066-30.484c-29.718,6.278-59.79,30.79-61.096,69.721
	c-0.982,29.259,10.214,52.218,35.257,67.862c14.993,9.366,31.667,12.476,49.145,12.793c26.66,0.485,49.34-8.746,68.635-26.896
	c1.424-1.34,1.806-2.163,0.394-3.789c-7.962-9.171-15.851-18.406-23.689-27.684c-1.21-1.431-1.893-1.21-3.096-0.03
	c-1.92,1.885-3.988,3.64-6.12,5.285c-13.323,10.287-28.227,14.84-44.827,10.796c-13.762-3.354-23.361-11.955-26.664-26.033
	c-3.368-14.358,1.174-26.465,12.77-35.575c10.654-8.37,22.926-9.469,35.611-6.309c17.774,4.428,31.202,15.439,42.448,29.389
	c12.094,15,24.479,29.775,37.428,44.014c27.09,29.788,60.615,42.224,100.692,35.142c31.093-5.494,59.828-30.87,63.068-66.91
	c2.965-32.972-14.087-63.221-44.955-76.668c-18.929-8.246-38.732-9.044-58.834-6.201c-19.246,2.721-35.377,11.745-49.283,25.046
	c-0.926,0.884-2.497,1.439-0.815,3.367C338.469,256.871,346.933,266.902,355.56,277.008z"/>
<path fill-rule="evenodd" clip-rule="evenodd" fill="#030303" d="M280.316,492.5c11.141,0.06,22.308-0.492,33.254,2.467
	c19.069,5.155,30.211,17.947,31.496,36.393c1.453,20.855-7.469,37.092-24.455,44.38c-8.247,3.54-17.018,4.533-25.855,4.682
	c-11.9,0.201-23.806,0.073-35.709,0.009c-0.96-0.006-2.593,0.914-2.73-1.277c-0.131-2.079,1.375-1.526,2.471-1.699
	c7.353-1.163,9.128-3.11,9.15-10.677c0.06-20.125,0.048-40.25,0.007-60.376c-0.017-7.983-1.352-9.499-9.103-11.12
	c-0.995-0.208-2.822,0.444-2.48-1.682c0.314-1.958,1.958-1.044,2.97-1.056C266.326,492.458,273.321,492.498,280.316,492.5z
	 M281.58,536.303c0,11.03,0.063,22.061-0.039,33.09c-0.03,3.2,1.054,5.427,4.349,5.623c12.68,0.755,24.747-1.021,34.458-10.158
	c8.749-8.233,10.621-19.085,10.146-30.358c-1.192-28.208-21.9-37.542-43.07-36.975c-4.929,0.132-5.838,1.464-5.841,6.424
	C281.575,514.733,281.58,525.518,281.58,536.303z"/>
<path fill-rule="evenodd" clip-rule="evenodd" fill="#030303" d="M376.11,492.502c11.142,0.049,22.31-0.487,33.254,2.473
	c18.945,5.123,29.918,17.651,31.395,36.068c1.666,20.777-7.149,37.021-24.124,44.535c-8.23,3.644-16.983,4.655-25.811,4.831
	c-12.021,0.24-24.05,0.083-36.076,0.022c-0.966-0.004-2.603,0.89-2.687-1.327c-0.08-2.095,1.45-1.479,2.521-1.651
	c7.218-1.157,9.062-3.065,9.093-10.355c0.087-20.37,0.079-40.741,0.006-61.111c-0.027-7.646-1.422-9.104-9.138-10.711
	c-1.014-0.211-2.783,0.398-2.442-1.725c0.28-1.747,1.727-1.011,2.657-1.019C361.876,492.471,368.993,492.498,376.11,492.502z
	 M377.328,536.238c0,11.03-0.015,22.06,0.008,33.09c0.008,4.195,1.154,5.473,5.331,5.84c4.171,0.368,8.327,0.017,12.446-0.654
	c11.952-1.946,21.788-7.072,27.368-18.466c2.466-5.033,3.489-10.474,3.757-15.975c1.464-30.119-17.907-43.136-43.003-42.554
	c-4.968,0.114-5.902,1.451-5.905,6.363C377.321,514.669,377.327,525.453,377.328,536.238z"/>
<path fill-rule="evenodd" clip-rule="evenodd" fill="#030303" d="M606,558.024c-1.738,6.466-3.607,12.938-5.171,19.483
	c-0.562,2.355-1.51,3.037-3.926,3.025c-21.845-0.104-43.689-0.062-65.534-0.062c-0.613,0-1.228-0.011-1.841,0.001
	c-0.803,0.016-1.466-0.106-1.417-1.151c0.039-0.853-0.119-1.811,1.202-1.796c0.122,0.001,0.246-0.002,0.367-0.017
	c9.071-1.078,10.061-2.754,10.153-12.315c0.185-19.143,0.056-38.29,0.051-57.435c0-0.734-0.044-1.471-0.094-2.203
	c-0.501-7.491-1.53-8.62-8.88-10.239c-1.04-0.229-3.175,0.592-2.755-1.793c0.332-1.887,2.004-0.979,3.026-0.982
	c21.477-0.057,42.953-0.001,64.43-0.1c2.559-0.011,3.405,0.69,3.338,3.271c-0.119,4.654,0.072,9.318,0.193,13.978
	c0.028,1.091,0.044,1.986-1.393,2.003c-1.14,0.014-2.284,0.088-2.47-1.476c-1.21-10.261-8.149-12.615-17.034-12.481
	c-6.747,0.101-13.499,0.052-20.247-0.055c-3.316-0.053-4.556,1.403-4.512,4.673c0.119,8.834,0.056,17.671,0.028,26.508
	c-0.005,1.576-0.098,2.896,2.198,2.804c7.473-0.3,14.95,0.215,22.437-0.371c5.091-0.399,7.786-3.004,8.959-7.675
	c0.298-1.187,0.614-2.373,0.836-3.575c0.244-1.318,1.152-1.289,2.194-1.357c1.625-0.106,1.382,0.98,1.384,1.917
	c0.009,9.082,0.007,18.163,0.003,27.245c-0.001,0.827,0.205,1.806-1.161,1.762c-1.079-0.034-2.214,0.231-2.475-1.411
	c-1.531-9.658-4.432-11.365-15.922-11.185c-5.398,0.085-10.801,0.085-16.198-0.025c-1.782-0.037-2.29,0.506-2.276,2.271
	c0.073,10.186,0.017,20.371,0.049,30.558c0.008,2.438,0.874,4.421,3.652,4.66c8.453,0.729,16.899,0.758,25.351-0.205
	c8.786-1.001,14.543-5.946,18.109-13.719C601.704,558.271,602.898,556.817,606,558.024z"/>
<path fill-rule="evenodd" clip-rule="evenodd" fill="#030303" d="M99.159,582.023c-5.527,0.471-11.241-1.901-17.033-3.798
	c-3.065-1.004-5.627-1.201-6.655,2.593c-0.383,1.408-1.367,1.097-2.297,1.133c-1.292,0.05-1.251-1.02-1.358-1.784
	c-1.139-8.13-2.239-16.264-3.32-24.4c-0.115-0.864-0.782-2.066,0.819-2.304c1.137-0.168,2.102,0.005,2.66,1.323
	c1.049,2.475,2.103,4.974,3.445,7.294c5.094,8.8,12.219,14.579,22.877,14.846c6.653,0.166,12.801-3.617,15.009-9.208
	c2.391-6.054,0.629-13.304-4.569-17.696c-7.231-6.11-15.642-10.482-23.542-15.605c-5.878-3.811-11.077-8.232-12.872-15.394
	c-4.159-16.595,10.345-31.32,27.601-28.191c4.364,0.792,8.445,2.427,12.637,3.722c2.869,0.887,4.927,0.284,5.951-2.469
	c0.521-1.399,1.271-1.604,2.448-1.492c1.441,0.136,1.208,1.293,1.305,2.221c0.772,7.434,1.607,14.861,2.23,22.307
	c0.104,1.234,1.468,3.29-1.066,3.813c-2.385,0.491-2.351-1.561-2.783-3.01c-2.817-9.452-8.526-16.133-18.215-18.961
	c-3.86-1.127-7.716-1.252-11.469,0.492c-7.946,3.692-9.81,13.057-3.849,19.535c2.668,2.901,5.758,5.296,9.122,7.367
	c6.977,4.299,14.072,8.397,20.685,13.285c10.534,7.789,12.928,17.193,9.625,28.041c-2.892,9.499-13.508,16.197-24.766,16.34
	C101.166,582.031,100.552,582.023,99.159,582.023z"/>
<path fill-rule="evenodd" clip-rule="evenodd" fill="#030303" d="M173.26,492.498c10.796-0.001,21.594,0.082,32.388-0.062
	c2.494-0.034,3.086,0.773,3.069,3.107c-0.035,4.646,0.217,9.296,0.402,13.942c0.05,1.249-0.06,2.229-1.642,2.208
	c-1.215-0.017-2.536,0.246-2.646-1.644c-0.05-0.842-0.354-1.672-0.569-2.501c-1.647-6.366-4.392-8.854-10.982-9.434
	c-8.688-0.764-17.408-0.345-26.115-0.398c-2.985-0.019-4.054,1.489-4.026,4.371c0.084,8.955,0.033,17.911,0.028,26.866
	c0,1.37-0.202,2.763,1.932,2.694c6.983-0.227,13.989,0.445,20.955-0.37c6.419-0.752,8.08-2.29,9.771-8.572
	c0.19-0.709,0.299-1.439,0.455-2.157c0.248-1.137,0.584-1.928,2.118-1.895c1.783,0.041,1.593,1.105,1.594,2.194
	c0.006,8.957-0.003,17.912,0.015,26.867c0.002,1.044,0.072,1.972-1.435,1.922c-1.035-0.034-1.982,0.007-2.187-1.326
	c-0.055-0.36-0.187-0.71-0.284-1.064c-2.418-8.814-4.183-10.175-13.367-10.212c-5.644-0.023-11.289,0.087-16.929-0.054
	c-2.106-0.053-2.702,0.596-2.678,2.678c0.102,9.077-0.006,18.157,0.059,27.234c0.055,7.649,1.903,9.617,9.574,10.605
	c0.994,0.129,2.429-0.348,2.479,1.39c0.058,1.987-1.478,1.57-2.625,1.572c-10.796,0.019-21.592,0.029-32.388-0.022
	c-0.893-0.004-2.312,0.745-2.488-1.164c-0.183-1.98,1.175-1.648,2.366-1.825c7.478-1.112,9.126-2.576,9.207-10.127
	c0.218-20.482,0.262-40.97,0.096-61.452c-0.063-7.839-1.395-8.935-9.261-10.632c-0.89-0.192-2.468,0.516-2.391-1.397
	c0.085-2.129,1.743-1.303,2.75-1.308C151.424,492.478,162.342,492.498,173.26,492.498z"/>
<path fill-rule="evenodd" clip-rule="evenodd" fill="#030303" d="M482.741,580.472c-10.918,0-21.835,0.029-32.752-0.049
	c-0.967-0.007-2.612,0.999-2.889-1.095c-0.303-2.289,1.447-1.706,2.656-1.889c7.143-1.08,8.861-2.593,8.935-10.03
	c0.205-20.603,0.219-41.21,0.02-61.813c-0.074-7.605-1.415-8.672-9.14-10.331c-1.002-0.215-2.785,0.435-2.459-1.701
	c0.268-1.757,1.716-1.028,2.645-1.033c10.794-0.051,21.589-0.051,32.384,0c0.916,0.004,2.381-0.728,2.578,1.092
	c0.234,2.174-1.544,1.415-2.533,1.594c-8.328,1.505-9.675,3.107-9.675,11.719c-0.001,20.485-0.006,40.971,0.003,61.457
	c0.001,5.067,0.724,5.938,5.826,6.372c8.593,0.732,17.161,0.207,25.666-1.059c5.05-0.751,9.205-3.268,12.104-7.56
	c1.643-2.431,3.238-4.913,4.599-7.506c0.825-1.573,2.024-1.781,3.346-1.414c1.841,0.511,0.554,1.903,0.341,2.704
	c-1.593,6.03-3.432,11.996-4.984,18.036c-0.535,2.081-1.493,2.58-3.55,2.56C504.821,580.412,493.781,580.472,482.741,580.472z"/>
<path fill-rule="evenodd" clip-rule="evenodd" fill="#030303" d="M238.729,537.016c0,10.186-0.118,20.373,0.04,30.556
	c0.113,7.292,2.018,9.064,9.399,9.931c1.172,0.137,3.386-0.975,3.168,1.671c-0.209,2.544-2.327,1.213-3.443,1.226
	c-10.924,0.123-21.849,0.104-32.772,0.025c-1.044-0.008-2.958,1.046-2.962-1.378c-0.006-2.332,1.872-1.424,2.987-1.543
	c7.663-0.817,9.702-2.716,9.749-10.402c0.122-20.375,0.116-40.751,0.006-61.127c-0.042-7.874-1.677-9.388-9.933-10.774
	c-0.973-0.163-2.814,0.807-2.794-1.311c0.022-2.364,1.972-1.335,3.045-1.343c11.046-0.077,22.094-0.074,33.141-0.004
	c1.014,0.006,2.719-0.902,2.968,1.047c0.312,2.434-1.795,1.447-2.837,1.628c-8.352,1.446-9.65,2.677-9.812,11.237
	c-0.191,10.185-0.044,20.374-0.044,30.562C238.664,537.016,238.696,537.016,238.729,537.016z"/>
<path fill-rule="evenodd" clip-rule="evenodd" fill="#030303" d="M34.391,536.577c0-10.051,0.07-20.104-0.022-30.153
	c-0.074-8.112-1.579-9.734-9.457-11.2c-0.964-0.179-2.818,0.76-2.764-1.359c0.061-2.354,1.995-1.31,3.067-1.317
	c10.789-0.081,21.578-0.07,32.367-0.015c1.012,0.005,2.695-0.792,2.751,1.323c0.049,1.886-1.528,1.178-2.429,1.354
	c-8.346,1.626-9.806,3.107-9.877,11.714c-0.137,16.672-0.062,33.348-0.04,50.021c0.005,4.083-0.603,8.035-2.091,11.842
	c-4.023,10.289-16.308,15.915-26.68,12.221c-4.14-1.474-6.625-4.807-6.704-8.671c-0.067-3.284,1.314-5.361,4.501-6.211
	c3.142-0.839,5.583,0.26,7.241,2.912c1.095,1.752,1.821,3.729,2.81,5.554c0.722,1.334,1.68,2.396,3.467,2.204
	c1.928-0.208,2.862-1.588,3.159-3.137c0.481-2.511,0.735-5.099,0.756-7.657c0.082-9.807,0.033-19.615,0.033-29.424
	C34.45,536.577,34.42,536.577,34.391,536.577z"/>
<g>
</g>
<g>
</g>
<g>
</g>
<g>
</g>
<g>
</g>
<g>
</g>
</svg>
