<?xml version="1.0" encoding="utf-8"?>
<!-- Generator: Adobe Illustrator 16.0.0, SVG Export Plug-In . SVG Version: 6.00 Build 0)  -->
<!DOCTYPE svg PUBLIC "-//W3C//DTD SVG 1.1//EN" "http://www.w3.org/Graphics/SVG/1.1/DTD/svg11.dtd">
<svg version="1.1" id="Layer_1" xmlns="http://www.w3.org/2000/svg" xmlns:xlink="http://www.w3.org/1999/xlink" x="0px" y="0px"
	 width="300px" height="90px" viewBox="0 0 300 90" enable-background="new 0 0 300 90" xml:space="preserve">
<g id="Text_MAGAZINE">
	<path fill="#929395" d="M97.404,57.968h2.279l5.63,14.269l5.606-14.269h2.279v16.273h-1.548V60.179h-0.047l-5.561,14.062h-1.458
		L99,60.179h-0.045v14.062h-1.55V57.968z"/>
	<path fill="#929395" d="M125.756,57.968h1.732l6.381,16.273h-1.663l-1.983-5.06h-7.408l-1.96,5.06h-1.663L125.756,57.968z
		 M123.294,67.859h6.404l-3.144-8.343L123.294,67.859z"/>
	<path fill="#929395" d="M153.812,74.241h-1.117l-0.205-2.963h-0.045c-1.095,2.324-3.283,3.306-5.631,3.306
		c-5.128,0-7.68-4.035-7.68-8.479c0-4.445,2.552-8.48,7.68-8.48c3.418,0,6.201,1.847,6.793,5.402h-1.55
		c-0.206-1.868-2.144-4.08-5.243-4.08c-4.307,0-6.131,3.603-6.131,7.158c0,3.554,1.824,7.156,6.131,7.156
		c3.602,0,5.699-2.529,5.631-5.972h-5.539v-1.321h6.906V74.241z"/>
	<path fill="#929395" d="M166.119,57.968h1.733l6.381,16.273h-1.662l-1.983-5.06h-7.407l-1.961,5.06h-1.664L166.119,57.968z
		 M163.658,67.859h6.405l-3.146-8.343L163.658,67.859z"/>
	<path fill="#929395" d="M179.476,57.968h11.715v1.367L180.479,72.92h10.941v1.321h-12.674v-1.367l10.713-13.584h-9.983V57.968z"/>
	<path fill="#929395" d="M198.028,57.968h1.549v16.273h-1.549V57.968z"/>
	<path fill="#929395" d="M207.51,57.968h1.731l9.482,13.767h0.045V57.968h1.551v16.273h-1.733l-9.48-13.767h-0.047v13.767h-1.549
		V57.968z"/>
	<path fill="#929395" d="M228.136,57.968h11.237v1.322h-9.688v5.88h9.071v1.321h-9.071v6.429h9.801v1.321h-11.351V57.968z"/>
</g>
<path id="SMASHING_1_" fill="#1A171B" d="M259.844,35.18c0-7.94,6.435-14.378,14.371-14.378c5.512,0,10.297,3.104,12.71,7.659
	l-5.285,1.716c-1.608-2.385-4.334-3.952-7.425-3.952c-4.943,0-8.95,4.008-8.95,8.954c0,4.944,4.007,8.952,8.95,8.952
	c2.746,0,5.203-1.237,6.846-3.183l-3.144,0.514l-3.812-3.813l8.213-1.345l8.213-1.344l-1.344,8.214l-1.344,8.214l-3.813-3.812
	l0.37-2.255c-2.603,2.615-6.205,4.232-10.185,4.232C266.278,49.554,259.844,43.119,259.844,35.18z M93.708,39.46
	c-0.026,1.729,0.288,3.22,0.942,4.478s1.533,2.292,2.633,3.104c1.127,0.811,2.409,1.399,3.85,1.766
	c1.465,0.393,2.972,0.59,4.517,0.59c1.912,0,3.587-0.222,5.027-0.667c1.468-0.445,2.684-1.062,3.654-1.847
	c0.994-0.812,1.741-1.767,2.238-2.868c0.498-1.099,0.747-2.291,0.748-3.574c0-1.571-0.341-2.854-1.023-3.852
	c-0.654-1.021-1.44-1.834-2.356-2.436c-0.917-0.603-1.846-1.034-2.788-1.297c-0.918-0.289-1.637-0.485-2.16-0.589l-4.283-1.1
	c-1.072-0.288-1.923-0.577-2.552-0.864c-0.603-0.289-1.008-0.603-1.218-0.944c-0.211-0.339-0.315-0.786-0.315-1.337
	c0-0.601,0.132-1.1,0.393-1.493c0.262-0.392,0.589-0.719,0.981-0.981c0.42-0.262,0.878-0.446,1.376-0.55
	c0.496-0.105,0.995-0.159,1.492-0.159c0.76,0,1.453,0.067,2.082,0.199c0.655,0.13,1.231,0.354,1.729,0.667
	c0.497,0.315,0.89,0.747,1.178,1.297c0.315,0.549,0.499,1.244,0.551,2.083h5.97c0-1.626-0.315-3.001-0.942-4.127
	c-0.603-1.153-1.427-2.096-2.475-2.83c-1.047-0.733-2.251-1.257-3.614-1.571c-1.334-0.341-2.735-0.511-4.202-0.511
	c-1.257,0-2.514,0.17-3.771,0.511c-1.255,0.341-2.381,0.864-3.377,1.571c-0.996,0.708-1.808,1.598-2.437,2.672
	c-0.603,1.048-0.904,2.292-0.904,3.732c0,1.285,0.236,2.384,0.708,3.301c0.498,0.89,1.14,1.638,1.925,2.24
	c0.786,0.603,1.676,1.101,2.672,1.494c0.994,0.366,2.015,0.681,3.062,0.941c1.022,0.291,2.03,0.552,3.026,0.788
	c0.995,0.236,1.885,0.511,2.671,0.825c0.785,0.315,1.414,0.708,1.885,1.179c0.499,0.471,0.747,1.086,0.747,1.846
	c0,0.707-0.184,1.296-0.549,1.769c-0.367,0.444-0.826,0.797-1.375,1.06c-0.551,0.262-1.14,0.445-1.767,0.549
	c-0.63,0.08-1.219,0.118-1.769,0.118c-0.812,0-1.597-0.092-2.357-0.275c-0.759-0.209-1.427-0.509-2.002-0.902
	c-0.551-0.419-0.996-0.956-1.335-1.611c-0.341-0.655-0.511-1.453-0.511-2.396H93.708z M162.188,27.631l3.534,10.296h-7.267
	L162.188,27.631z M148.569,48.427V20.717h-8.68l-6.286,19.292l-6.56-19.292h-8.681v28.051h5.775l0.078-19.681l6.874,19.681h4.754
	l6.95-19.878v19.878h5.775h6.077l2.201-6.244h10.486l2.122,6.244h6.401L165.37,20.717h-6.325L148.569,48.427z M173.92,39.46
	c-0.024,1.729,0.289,3.22,0.944,4.478c0.654,1.257,1.531,2.292,2.631,3.104c1.126,0.811,2.409,1.399,3.851,1.766
	c1.465,0.393,2.971,0.59,4.516,0.59c1.912,0,3.589-0.222,5.028-0.667c1.467-0.445,2.685-1.062,3.652-1.847
	c0.996-0.812,1.743-1.767,2.24-2.868c0.497-1.099,0.745-2.291,0.746-3.574c0-1.571-0.34-2.854-1.021-3.852
	c-0.656-1.021-1.44-1.834-2.358-2.436c-0.916-0.603-1.847-1.034-2.789-1.297c-0.916-0.289-1.635-0.485-2.16-0.589l-4.281-1.1
	c-1.074-0.288-1.925-0.577-2.553-0.864c-0.604-0.289-1.009-0.603-1.218-0.944c-0.21-0.339-0.314-0.786-0.314-1.337
	c0-0.601,0.132-1.1,0.394-1.493c0.262-0.392,0.589-0.719,0.98-0.981c0.421-0.262,0.878-0.446,1.375-0.55
	c0.498-0.105,0.995-0.159,1.493-0.159c0.761,0,1.453,0.067,2.082,0.199c0.653,0.13,1.23,0.354,1.729,0.667
	c0.497,0.315,0.891,0.747,1.178,1.297c0.314,0.549,0.499,1.244,0.551,2.083h5.971c0-1.626-0.314-3.001-0.943-4.127
	c-0.602-1.153-1.426-2.096-2.474-2.83c-1.048-0.733-2.252-1.257-3.615-1.571c-1.335-0.341-2.736-0.511-4.202-0.511
	c-1.257,0-2.514,0.17-3.771,0.511c-1.258,0.341-2.384,0.864-3.379,1.571c-0.995,0.708-1.807,1.598-2.435,2.672
	c-0.603,1.048-0.903,2.292-0.903,3.732c0,1.285,0.233,2.384,0.706,3.301c0.497,0.89,1.14,1.638,1.925,2.24
	c0.786,0.603,1.677,1.101,2.672,1.494c0.995,0.366,2.017,0.681,3.063,0.941c1.021,0.291,2.028,0.552,3.023,0.788
	c0.996,0.236,1.887,0.511,2.672,0.825c0.786,0.315,1.413,0.708,1.886,1.179c0.497,0.471,0.746,1.086,0.746,1.846
	c0,0.707-0.184,1.296-0.549,1.769c-0.367,0.444-0.826,0.797-1.377,1.06c-0.549,0.262-1.138,0.445-1.767,0.549
	c-0.629,0.08-1.218,0.118-1.767,0.118c-0.812,0-1.599-0.092-2.357-0.275c-0.759-0.209-1.428-0.509-2.004-0.902
	c-0.55-0.419-0.995-0.956-1.334-1.611c-0.342-0.655-0.513-1.453-0.513-2.396H173.92z M198.576,48.769h6.167v-12.1h11.354v12.1h6.165
	V20.717h-6.165v10.766h-11.354V20.717h-6.167V48.769z M225.08,48.769h6.166V20.717h-6.166V48.769z M234.062,48.769h5.773
	l0.079-18.778l11.666,18.778h6.168V20.717h-5.774l-0.078,18.821L240.19,20.717h-6.128V48.769z"/>
<g>
	<path fill="#1A171B" d="M83.052,61.472L72.084,14.045c-0.903-3.848-4.73-6.246-8.584-5.36l-7.984,1.842
		c0.917,0.143,1.827,0.314,2.728,0.514c3.554,0.794,6.992,2.022,10.312,3.71L63.96,27.119c-3.475-2.974-8.331-4.462-14.533-4.462
		c-5.563,0-8.351,2.209-8.351,6.629c0,1.742,0.927,3.309,2.748,4.716c1.827,1.401,5.729,3.295,11.714,5.67
		c4.092,1.596,7.381,3.434,9.909,5.504c1.176,0.962,2.203,1.971,3.042,3.038c2.632,3.357,3.948,7.414,3.952,12.174
		c0,4.636-1.271,8.55-3.8,11.751l9.042-2.086C81.545,69.165,83.945,65.321,83.052,61.472z"/>
	<path fill="#1A171B" d="M53.071,55.1c-1.871-1.661-5.505-3.616-10.913-5.863c-3.216-1.336-5.976-2.823-8.312-4.451
		c-6.209-4.327-9.33-9.678-9.33-16.075c0-4.241,1.163-7.799,3.483-10.684c0.409-0.508,0.854-0.996,1.335-1.461l-13.25,3.056
		c-3.86,0.893-6.256,4.731-5.37,8.581l10.97,47.426c0.89,3.845,4.727,6.25,8.581,5.366l5.437-1.255
		c-0.141-0.035-0.289-0.068-0.425-0.105c-2.717-0.725-6.219-2.226-10.517-4.526l5.671-12.68c4.764,3.779,10.141,5.671,16.129,5.671
		c6.213,0,9.299-2.209,9.313-6.628C55.874,58.88,54.933,56.754,53.071,55.1z"/>
</g>
<g>
</g>
<g>
</g>
<g>
</g>
<g>
</g>
<g>
</g>
<g>
</g>
</svg>
