<svg xmlns="http://www.w3.org/2000/svg" width="72.888" height="89.7" viewBox="189.603 243.147 72.888 89.7" enable-background="new 189.603 243.147 72.888 89.7"><polygon fill="#ED1C24" points="230.703,243.147 254.79,243.147 254.79,300.62"/><polygon fill="#ED1C24" points="213.718,243.147 189.603,243.147 189.603,300.62"/><polygon fill="#ED1C24" points="222.205,264.324 237.56,300.613 227.499,300.613 222.901,289.058 211.66,289.058"/><path fill="#ED1C24" d="M259.192 245.816h.337c.404 0 .745-.137.745-.501 0-.278-.197-.522-.717-.522l-.365.01v1.013zm0 1.752h-.566v-3.107c.267-.047.523-.095.938-.095.503 0 .811.102 1.015.26.172.126.271.348.271.636 0 .404-.263.666-.604.748v.033c.27.046.45.295.506.755.084.485.144.676.193.769h-.569c-.077-.093-.137-.381-.207-.796-.06-.369-.27-.529-.65-.529h-.327v1.326zm.509-3.947c-1.233 0-2.227 1.04-2.227 2.324 0 1.296.994 2.331 2.241 2.331 1.23.012 2.22-1.035 2.22-2.331 0-1.284-.991-2.324-2.22-2.324h-.014zm.014-.474c1.546 0 2.775 1.242 2.775 2.791 0 1.572-1.23 2.814-2.789 2.814-1.553 0-2.814-1.242-2.814-2.814 0-1.549 1.261-2.791 2.814-2.791h.014z"/><path fill="#ED1C24" d="M194.812 327.588l-.987 4.999h-3.681l4.581-20.817h4.5l4.152 20.817h-3.688l-.973-4.999h-3.904zm3.545-2.944l-.762-4.507c-.225-1.307-.492-3.337-.699-4.742h-.074c-.232 1.412-.545 3.506-.773 4.749l-.822 4.5h3.13z"/><path fill="#ED1C24" d="M215.506 311.211v17.062c0 1.359.063 3.017.123 4.321h-3.263l-.218-1.739h-.074c-.544 1.068-1.735 1.985-3.147 1.985-3.119 0-4.665-3.429-4.665-7.756 0-5.269 2.312-7.827 4.813-7.827 1.307 0 2.164.632 2.589 1.56h.067v-7.605l3.775-.001zm-3.776 12.074c0-.271 0-.597-.06-.899-.14-1.019-.699-1.953-1.577-1.953-1.496 0-2.059 2.174-2.059 4.714 0 2.93.797 4.595 2.006 4.595.565 0 1.208-.285 1.563-1.511.077-.242.126-.576.126-.959v-3.987z"/><path fill="#ED1C24" d="M223.27 332.843c-3.46 0-5.645-2.786-5.645-7.76 0-5.424 2.8-7.83 5.726-7.83 3.436 0 5.585 2.912 5.585 7.749 0 6.214-3.369 7.841-5.638 7.841h-.028zm.073-2.884c1.433 0 1.799-2.694 1.799-4.939 0-2.122-.365-4.89-1.865-4.89-1.591 0-1.925 2.768-1.925 4.89 0 2.568.425 4.939 1.957 4.939h.034z"/><path fill="#ED1C24" d="M231.04 311.211h3.766v7.858h.06c.745-1.152 1.728-1.82 3.172-1.82 2.838 0 4.264 3.221 4.264 7.416 0 5.329-2.132 8.181-4.883 8.181-1.324 0-2.199-.59-2.99-2.066h-.077l-.207 1.806h-3.232c.056-1.254.127-2.954.127-4.314v-17.061zm3.766 15.994c0 .372.067.724.144.956.38 1.272 1.026 1.581 1.531 1.581 1.455 0 2.052-1.834 2.052-4.784 0-2.673-.629-4.525-2.069-4.525-.71 0-1.31.773-1.521 1.605-.07.263-.137.664-.137.959v4.208z"/><path fill="#ED1C24" d="M247.526 326.26c.039 2.729 1.479 3.622 3.27 3.622 1.142 0 2.111-.246 2.828-.527l.52 2.698c-1.004.436-2.55.703-4.033.703-4.047 0-6.246-2.747-6.246-7.454 0-5.048 2.554-8.065 5.902-8.065 3.235 0 5.027 2.67 5.027 7.05 0 .994-.042 1.549-.116 1.995l-7.152-.022zm3.8-2.652c.014-2.122-.597-3.618-1.799-3.618-1.37 0-1.95 2.002-1.988 3.618h3.787z"/></svg>