<?xml version="1.0" encoding="utf-8"?>
<!-- Generator: Adobe Illustrator 16.0.0, SVG Export Plug-In . SVG Version: 6.00 Build 0)  -->
<!DOCTYPE svg PUBLIC "-//W3C//DTD SVG 1.1//EN" "http://www.w3.org/Graphics/SVG/1.1/DTD/svg11.dtd">
<svg version="1.1" id="Layer_1" xmlns="http://www.w3.org/2000/svg" xmlns:xlink="http://www.w3.org/1999/xlink" x="0px" y="0px"
	 width="2000px" height="2000px" viewBox="0 0 2000 2000" enable-background="new 0 0 2000 2000" xml:space="preserve">
<rect fill="#FFFFFF" width="2025" height="2000"/>
<g>
	<g>
		<g>
			<g>
				<g>
					<path fill="#3A3634" d="M1074.231,1090.759c0,9.26-6.481,16.74-14.512,16.74H914.558c-8.023,0-14.518-7.48-14.518-16.74
						H428.851v31.616c0,18.459,42.551,23.107,60.277,23.107h1017.95c17.688,0,51.245-4.648,51.245-23.107v-31.616H1074.231z
						 M1489.929,1108.66h-37.4c-1.376,0-2.492-1.117-2.492-2.496c0-1.377,1.116-2.492,2.492-2.492h37.4
						c1.383,0,2.505,1.115,2.505,2.492C1492.434,1107.543,1491.312,1108.66,1489.929,1108.66z"/>
					<path fill="#3A3634" d="M1396.336,499.51H590.862c-15.492,0-28.055,12.561-28.055,28.055v482.896
						c0,0.121-0.019,0.237-0.019,0.358v51.03c0,8.261,6.698,14.961,14.967,14.961h13.107h11.207h783.035h11.232h13.084
						c8.264,0,14.968-6.7,14.968-14.961v-12.912c0-0.062,0-0.118,0-0.185V527.565C1424.388,512.071,1411.836,499.51,1396.336,499.51
						z M993.589,513.245c4.985,0,9.025,4.041,9.025,9.022c0,4.985-4.04,9.021-9.025,9.021c-4.985,0-9.019-4.037-9.019-9.021
						C984.571,517.285,988.604,513.245,993.589,513.245z M1382.002,1031.932H605.198V543.161h776.804V1031.932z"/>
				</g>
			</g>
			<path fill="#3A3634" d="M1259.609,568.204H727.572c-10.528,0-19.068,8.546-19.068,19.081v400.533
				c0,10.525,8.54,19.067,19.068,19.067h532.037c10.534,0,19.071-8.542,19.071-19.067V587.284
				C1278.681,576.75,1270.144,568.204,1259.609,568.204z M1228.132,964.171H756.515V610.922h471.625L1228.132,964.171z
				 M1255.556,800.654c-7.09,0-12.817-5.749-12.817-12.836c0-7.084,5.728-12.831,12.817-12.831c7.092,0,12.831,5.746,12.831,12.831
				C1268.387,794.905,1262.647,800.654,1255.556,800.654z"/>
			<path fill="#3A3634" d="M1037.484,662.091h-87.79c-11.003,0-19.921,8.92-19.921,19.921v211.067
				c0,11.004,8.917,19.921,19.921,19.921h87.79c11.004,0,19.921-8.917,19.921-19.921V682.012
				C1057.405,671.012,1048.488,662.091,1037.484,662.091z M993.405,902.812c-5.581,0-10.09-4.515-10.09-10.094
				c0-5.584,4.509-10.094,10.09-10.094c5.575,0,10.103,4.509,10.103,10.094C1003.508,898.297,998.979,902.812,993.405,902.812z
				 M1047.441,866.8H939.369V704.207h108.072V866.8z"/>
		</g>
	</g>
	<g>
		<path fill="#3A3634" d="M232.369,1288.316v42.545h-20.847v-106.074h32.516c10.719,0,19.16,2.752,25.328,8.273
			c6.162,5.498,9.234,13.157,9.234,22.965c0,5.464-1.284,10.201-3.859,14.22c-2.568,4.015-6.335,7.233-11.295,9.662
			c5.664,1.77,9.743,4.816,12.241,9.14c2.512,4.312,3.761,9.658,3.761,16.033v7.728c0,2.99,0.351,6.107,1.059,9.372
			c0.704,3.256,1.925,5.646,3.634,7.161v1.521h-21.602c-1.77-1.521-2.892-4.047-3.371-7.586c-0.479-3.532-0.726-7.084-0.726-10.617
			v-7.433c0-5.353-1.155-9.507-3.444-12.469c-2.302-2.955-5.597-4.44-9.894-4.44H232.369z M232.369,1272.18h11.593
			c4.502,0,7.915-1.322,10.236-3.941c2.315-2.63,3.488-6.381,3.488-11.224c0-4.956-1.173-8.886-3.488-11.8
			c-2.321-2.898-5.721-4.354-10.161-4.354h-11.669V1272.18z"/>
		<path fill="#3A3634" d="M358.649,1284.005h-33.125v30.781h39.648v16.075h-60.578v-106.147h60.442v16.147h-39.512v27.065h33.125
			V1284.005z"/>
		<path fill="#3A3634" d="M434.363,1303.031c0-4.199-1.044-7.469-3.152-9.818c-2.093-2.355-6.003-4.711-11.702-7.083
			c-10.826-3.75-18.896-8.064-24.23-12.968c-5.332-4.905-7.998-11.756-7.998-20.553c0-8.727,2.997-15.829,9.021-21.266
			c6.013-5.429,13.928-8.143,23.73-8.143c10.468,0,18.726,2.892,24.795,8.676c6.056,5.788,8.999,13.607,8.793,23.464l-0.149,0.46
			h-20.321c0-5.56-1.104-9.742-3.307-12.546c-2.185-2.812-5.566-4.211-10.113-4.211c-3.938,0-6.836,1.259-8.676,3.793
			c-1.852,2.524-2.771,5.81-2.771,9.856c0,3.741,1.104,6.767,3.33,9.101c2.233,2.318,6.294,4.791,12.212,7.424
			c10.461,3.437,18.311,7.692,23.546,12.767c5.226,5.089,7.833,12.05,7.833,20.895c0,9.146-3.064,16.356-9.209,21.611
			c-6.139,5.261-14.381,7.877-24.748,7.877c-10.214,0-18.875-2.797-26.01-8.371c-7.132-5.586-10.56-14.116-10.296-25.589l0.148-0.46
			h20.309c0,6.622,1.315,11.397,3.951,14.302c2.619,2.902,6.589,4.354,11.898,4.354c4.503,0,7.804-1.243,9.919-3.713
			C433.3,1310.416,434.363,1307.122,434.363,1303.031z"/>
		<path fill="#3A3634" d="M499.631,1293.857v37.004h-20.92v-106.147h36.313c10.813,0,19.397,3.23,25.736,9.659
			c6.345,6.45,9.522,14.777,9.522,24.988c0,10.215-3.177,18.52-9.522,24.906c-6.339,6.398-14.923,9.59-25.736,9.59H499.631z
			 M499.631,1277.782h15.393c4.642,0,8.207-1.757,10.651-5.267c2.458-3.517,3.675-7.846,3.675-12.999
			c0-5.26-1.218-9.678-3.675-13.276c-2.445-3.584-6.01-5.379-10.651-5.379h-15.393V1277.782z"/>
		<path fill="#3A3634" d="M646.797,1290.447c0,12.889-3.59,23.099-10.776,30.633c-7.16,7.522-16.687,11.287-28.572,11.287
			c-11.882,0-21.415-3.765-28.62-11.287c-7.214-7.534-10.807-17.744-10.807-30.633v-25.169c0-12.84,3.574-23.061,10.734-30.667
			c7.142-7.604,16.655-11.41,28.541-11.41c11.882,0,21.42,3.806,28.654,11.41c7.228,7.606,10.846,17.827,10.846,30.667V1290.447z
			 M625.95,1265.13c0-8.242-1.633-14.587-4.845-19.033c-3.241-4.446-7.859-6.675-13.807-6.675c-6.019,0-10.56,2.229-13.642,6.675
			c-3.089,4.446-4.637,10.791-4.637,19.026v25.324c0,8.293,1.573,14.654,4.712,19.107c3.114,4.445,7.7,6.672,13.718,6.672
			c5.968,0,10.529-2.227,13.722-6.672c3.187-4.453,4.779-10.814,4.779-19.107V1265.13z"/>
		<path fill="#3A3634" d="M747.775,1330.861h-20.923l-34.422-68.009l-0.457,0.069v67.939H671.05v-106.147h20.923l34.433,67.935
			l0.447-0.072v-67.862h20.923V1330.861z"/>
		<path fill="#3A3634" d="M820.616,1303.031c0-4.199-1.04-7.469-3.152-9.818c-2.1-2.355-6.006-4.711-11.714-7.083
			c-10.814-3.75-18.881-8.064-24.215-12.968c-5.339-4.905-8.003-11.759-8.003-20.553c0-8.727,3.006-15.829,9.025-21.259
			c6.012-5.436,13.928-8.149,23.739-8.149c10.446,0,18.716,2.892,24.779,8.676c6.076,5.788,8.994,13.607,8.791,23.464l-0.133,0.46
			h-20.333c0-5.56-1.104-9.742-3.292-12.546c-2.201-2.812-5.582-4.211-10.122-4.211c-3.958,0-6.836,1.259-8.689,3.793
			c-1.839,2.524-2.771,5.81-2.771,9.856c0,3.741,1.123,6.767,3.343,9.101c2.219,2.318,6.303,4.791,12.215,7.424
			c10.452,3.437,18.304,7.692,23.536,12.767c5.232,5.089,7.833,12.05,7.833,20.895c0,9.146-3.063,16.356-9.203,21.611
			c-6.133,5.261-14.391,7.877-24.748,7.877c-10.224,0-18.874-2.797-26.009-8.371c-7.123-5.586-10.56-14.116-10.306-25.589
			l0.139-0.453h20.327c0,6.615,1.313,11.391,3.945,14.295c2.632,2.905,6.596,4.354,11.904,4.354c4.49,0,7.813-1.239,9.932-3.713
			C819.551,1310.416,820.616,1307.122,820.616,1303.031z"/>
		<path fill="#3A3634" d="M887.014,1330.861h-20.999v-106.147h20.999V1330.861z"/>
		<path fill="#3A3634" d="M946.904,1303.719l0.9,4.469l0.463,0.076l0.914-4.323l18.723-79.227h21.988l-30.861,106.147h-21.836
			l-30.855-106.147h21.989L946.904,1303.719z"/>
		<path fill="#3A3634" d="M1062.13,1284.005h-33.125v30.781h39.651v16.075h-60.581v-106.147h60.43v16.147h-39.5v27.065h33.125
			V1284.005z"/>
		<path fill="#3A3634" d="M1108.403,1330.861v-106.147h33.354c11.321,0,20.65,4.145,28.015,12.435
			c7.357,8.286,11.035,18.928,11.035,31.92v17.584c0,12.999-3.678,23.606-11.035,31.848c-7.364,8.238-16.693,12.361-28.015,12.361
			H1108.403z M1129.32,1240.861v73.925h12.437c5.461,0,9.843-2.622,13.191-7.845c3.337-5.241,5.005-11.99,5.005-20.289v-17.733
			c0-8.238-1.668-14.977-5.005-20.216c-3.349-5.226-7.73-7.842-13.191-7.842H1129.32z"/>
		<path fill="#3A3634" d="M1257.422,1284.005h-33.152v30.781h39.652v16.075h-60.568v-106.147h60.435v16.147h-39.519v27.065h33.152
			V1284.005z"/>
		<path fill="#3A3634" d="M1332.799,1303.031c0-4.199-1.034-7.465-3.134-9.818c-2.099-2.355-6.013-4.711-11.726-7.083
			c-10.814-3.75-18.888-8.064-24.209-12.968c-5.347-4.905-8.01-11.759-8.01-20.549c0-8.733,3.006-15.837,9.031-21.263
			c6.006-5.433,13.914-8.149,23.719-8.149c10.466,0,18.729,2.892,24.793,8.676c6.075,5.788,9.006,13.607,8.804,23.464l-0.159,0.463
			h-20.314c0-5.562-1.098-9.745-3.298-12.549c-2.201-2.809-5.568-4.211-10.128-4.211c-3.938,0-6.831,1.259-8.689,3.793
			c-1.833,2.527-2.752,5.81-2.752,9.853c0,3.745,1.109,6.771,3.342,9.102c2.213,2.321,6.285,4.794,12.203,7.427
			c10.464,3.44,18.303,7.692,23.536,12.767c5.238,5.089,7.845,12.05,7.845,20.895c0,9.148-3.07,16.356-9.216,21.608
			c-6.139,5.264-14.39,7.883-24.747,7.883c-10.218,0-18.881-2.8-26.01-8.374c-7.129-5.586-10.554-14.116-10.299-25.586l0.145-0.456
			h20.321c0,6.615,1.313,11.391,3.938,14.295c2.625,2.905,6.602,4.354,11.904,4.354c4.49,0,7.814-1.239,9.932-3.713
			C1331.746,1310.416,1332.799,1307.122,1332.799,1303.031z"/>
		<path fill="#3A3634" d="M1398.898,1330.861h-21.019v-106.147h21.019V1330.861z"/>
		<path fill="#3A3634" d="M1497.735,1316.375c-3.145,4.348-7.63,8.101-13.451,11.258c-5.842,3.162-13.364,4.737-22.554,4.737
			c-11.638,0-20.999-3.574-28.09-10.724c-7.109-7.152-10.667-17.1-10.667-29.838v-28.042c0-12.647,3.462-22.569,10.395-29.762
			c6.919-7.204,16.001-10.804,27.221-10.804c11.715,0,20.606,2.892,26.656,8.676c6.026,5.788,8.956,13.763,8.747,23.93l-0.146,0.443
			h-19.712c0-5.608-1.268-9.824-3.792-12.655c-2.531-2.828-6.247-4.253-11.15-4.253c-5.359,0-9.563,2.084-12.615,6.253
			c-3.076,4.174-4.598,10.181-4.598,18.01v28.204c0,7.988,1.535,14.067,4.623,18.237c3.083,4.173,7.459,6.257,13.129,6.257
			c4.04,0,7.211-0.53,9.514-1.596c2.296-1.056,4.122-2.419,5.492-4.094v-20.927h-16.533v-14.178h37.532V1316.375z"/>
		<path fill="#3A3634" d="M1598.559,1330.861h-20.93l-34.413-68.009l-0.457,0.069v67.939h-20.923v-106.147h20.923l34.427,67.935
			l0.443-0.072v-67.862h20.93V1330.861z"/>
		<path fill="#3A3634" d="M1647.096,1330.861h-20.701v-18.425h20.701V1330.861z"/>
		<path fill="#3A3634" d="M1696.224,1232.75h-20.917v-15.615h20.917V1232.75z M1696.224,1330.861h-20.917v-78.854h20.917V1330.861z"
			/>
		<path fill="#3A3634" d="M1755.339,1310.23c0-2.321-0.913-4.298-2.739-5.95c-1.82-1.64-5.32-3.644-10.521-6.021
			c-8.258-2.937-14.441-6.285-18.59-10.046c-4.129-3.762-6.209-8.584-6.209-14.438c0-6.429,2.627-11.914,7.884-16.461
			c5.258-4.542,12.241-6.818,20.924-6.818c9.005,0,16.185,2.35,21.575,7.049c5.378,4.696,7.941,10.621,7.693,17.746l-0.152,0.454
			h-20.244c0-3.292-0.749-5.943-2.231-7.969c-1.498-2.016-3.736-3.032-6.725-3.032c-2.46,0-4.56,0.786-6.291,2.358
			c-1.712,1.561-2.58,3.464-2.58,5.68c0,2.328,0.849,4.209,2.549,5.648c1.693,1.439,5.295,3.425,10.808,5.949
			c8.491,2.882,14.809,6.246,18.944,10.088c4.153,3.837,6.228,8.854,6.228,15.015c0,6.717-2.753,12.212-8.232,16.485
			c-5.486,4.276-12.723,6.403-21.709,6.403c-9.355,0-16.757-2.619-22.23-7.883c-5.454-5.252-8.036-11.191-7.725-17.815l0.153-0.457
			h19.021c0.101,4.249,1.147,7.319,3.113,9.223c1.984,1.889,4.7,2.835,8.188,2.835c2.981,0,5.238-0.724,6.787-2.161
			C1754.572,1314.666,1755.339,1312.709,1755.339,1310.23z"/>
	</g>
</g>
</svg>
