<?xml version="1.0" encoding="utf-8"?>
<!-- Generator: Adobe Illustrator 16.0.0, SVG Export Plug-In . SVG Version: 6.00 Build 0)  -->
<!DOCTYPE svg PUBLIC "-//W3C//DTD SVG 1.1//EN" "http://www.w3.org/Graphics/SVG/1.1/DTD/svg11.dtd">
<svg version="1.1" id="Layer_1" xmlns="http://www.w3.org/2000/svg" xmlns:xlink="http://www.w3.org/1999/xlink" x="0px" y="0px"
	 width="300px" height="160px" viewBox="0 0 300 160" enable-background="new 0 0 300 160" xml:space="preserve">
<g>
	<g>
		<g>
			<g>
				<g>
					<path d="M164.027,111.235c0,1.658-1.16,2.997-2.598,2.997h-25.986c-1.436,0-2.599-1.339-2.599-2.997H48.497v5.66
						c0,3.304,7.617,4.136,10.791,4.136h182.226c3.166,0,9.173-0.832,9.173-4.136v-5.66H164.027z M238.442,114.44h-6.695
						c-0.246,0-0.446-0.2-0.446-0.447c0-0.246,0.2-0.446,0.446-0.446h6.695c0.248,0,0.448,0.2,0.448,0.446
						C238.891,114.24,238.69,114.44,238.442,114.44z"/>
					<path d="M221.688,5.395H77.499c-2.773,0-5.022,2.249-5.022,5.022v86.444c0,0.021-0.003,0.042-0.003,0.064v9.135
						c0,1.479,1.199,2.678,2.679,2.678h2.346h2.006h140.173h2.011h2.342c1.479,0,2.68-1.199,2.68-2.678v-2.312
						c0-0.012,0-0.021,0-0.033V10.417C226.71,7.644,224.463,5.395,221.688,5.395z M149.591,7.854c0.893,0,1.616,0.723,1.616,1.615
						c0,0.893-0.723,1.615-1.616,1.615c-0.892,0-1.614-0.723-1.614-1.615C147.977,8.577,148.699,7.854,149.591,7.854z
						 M219.122,100.705H80.065V13.209h139.057V100.705z"/>
				</g>
			</g>
			<path d="M197.212,17.692h-95.241c-1.885,0-3.414,1.53-3.414,3.416v71.7c0,1.884,1.529,3.413,3.414,3.413h95.241
				c1.886,0,3.414-1.529,3.414-3.413v-71.7C200.626,19.222,199.099,17.692,197.212,17.692z M191.577,88.574h-84.425V25.339h84.427
				L191.577,88.574z M196.486,59.303c-1.269,0-2.294-1.029-2.294-2.298c0-1.268,1.025-2.297,2.294-2.297
				c1.271,0,2.297,1.029,2.297,2.297C198.783,58.274,197.756,59.303,196.486,59.303z"/>
			<path d="M157.449,34.499h-15.715c-1.97,0-3.566,1.597-3.566,3.566v37.783c0,1.97,1.596,3.566,3.566,3.566h15.715
				c1.97,0,3.566-1.596,3.566-3.566V38.065C161.016,36.096,159.419,34.499,157.449,34.499z M149.559,77.591
				c-0.999,0-1.806-0.809-1.806-1.807c0-1,0.807-1.807,1.806-1.807c0.998,0,1.809,0.807,1.809,1.807
				C151.367,76.782,150.556,77.591,149.559,77.591z M159.231,71.144h-19.346V42.038h19.346V71.144z"/>
		</g>
	</g>
	<g>
		<path d="M13.324,146.601v7.616H9.592v-18.988h5.821c1.919,0,3.43,0.492,4.534,1.48c1.103,0.984,1.653,2.355,1.653,4.111
			c0,0.978-0.229,1.826-0.69,2.545c-0.46,0.719-1.134,1.295-2.022,1.73c1.014,0.316,1.744,0.861,2.191,1.636
			c0.45,0.771,0.673,1.729,0.673,2.87v1.383c0,0.536,0.063,1.094,0.19,1.678c0.126,0.583,0.344,1.012,0.65,1.282v0.272h-3.867
			c-0.317-0.272-0.518-0.725-0.604-1.358c-0.085-0.632-0.13-1.268-0.13-1.9v-1.33c0-0.959-0.207-1.702-0.616-2.232
			c-0.412-0.529-1.002-0.795-1.771-0.795H13.324L13.324,146.601z M13.324,143.712h2.076c0.806,0,1.417-0.236,1.832-0.705
			c0.415-0.471,0.625-1.143,0.625-2.01c0-0.887-0.21-1.591-0.625-2.112c-0.416-0.519-1.024-0.779-1.819-0.779h-2.089V143.712
			L13.324,143.712z"/>
		<path d="M35.93,145.829H30v5.51h7.097v2.878H26.253v-19.002h10.82v2.891H30v4.845h5.93V145.829L35.93,145.829z"/>
		<path d="M49.483,149.234c0-0.751-0.187-1.337-0.564-1.757c-0.375-0.422-1.075-0.844-2.095-1.269
			c-1.938-0.671-3.382-1.443-4.337-2.321c-0.955-0.878-1.432-2.104-1.432-3.679c0-1.562,0.536-2.834,1.615-3.808
			c1.077-0.972,2.493-1.457,4.248-1.457c1.874,0,3.352,0.518,4.438,1.553c1.084,1.036,1.611,2.436,1.574,4.2l-0.027,0.082h-3.638
			c0-0.995-0.198-1.743-0.592-2.245c-0.391-0.504-0.997-0.754-1.811-0.754c-0.705,0-1.224,0.226-1.553,0.679
			c-0.332,0.452-0.496,1.04-0.496,1.765c0,0.669,0.198,1.211,0.596,1.629c0.4,0.415,1.127,0.857,2.186,1.329
			c1.873,0.615,3.278,1.377,4.215,2.285c0.936,0.911,1.402,2.157,1.402,3.74c0,1.638-0.548,2.929-1.648,3.869
			c-1.099,0.941-2.574,1.41-4.43,1.41c-1.828,0-3.379-0.501-4.656-1.499c-1.276-1-1.89-2.526-1.843-4.58l0.026-0.083h3.636
			c0,1.186,0.235,2.041,0.707,2.561c0.469,0.52,1.18,0.779,2.13,0.779c0.806,0,1.397-0.223,1.776-0.664
			C49.293,150.557,49.483,149.967,49.483,149.234z"/>
		<path d="M61.167,147.593v6.624h-3.745v-19.002h6.501c1.936,0,3.472,0.578,4.607,1.729c1.136,1.154,1.705,2.646,1.705,4.473
			c0,1.829-0.569,3.315-1.705,4.459c-1.135,1.146-2.671,1.717-4.607,1.717H61.167L61.167,147.593z M61.167,144.715h2.756
			c0.831,0,1.469-0.314,1.906-0.943c0.44-0.629,0.658-1.404,0.658-2.326c0-0.942-0.218-1.732-0.658-2.377
			c-0.438-0.642-1.076-0.963-1.906-0.963h-2.756V144.715L61.167,144.715z"/>
		<path d="M87.512,146.982c0,2.307-0.643,4.135-1.929,5.483c-1.282,1.347-2.987,2.021-5.115,2.021c-2.127,0-3.833-0.674-5.124-2.021
			c-1.291-1.349-1.935-3.177-1.935-5.483v-4.506c0-2.299,0.64-4.128,1.922-5.49c1.278-1.361,2.981-2.042,5.109-2.042
			c2.127,0,3.834,0.681,5.129,2.042c1.294,1.362,1.942,3.191,1.942,5.49V146.982z M83.78,142.45c0-1.476-0.292-2.611-0.867-3.407
			c-0.581-0.796-1.407-1.195-2.472-1.195c-1.078,0-1.891,0.399-2.442,1.195c-0.553,0.796-0.83,1.932-0.83,3.406v4.533
			c0,1.484,0.282,2.623,0.844,3.42c0.557,0.796,1.378,1.194,2.456,1.194c1.068,0,1.885-0.398,2.457-1.194
			c0.57-0.797,0.855-1.936,0.855-3.42V142.45L83.78,142.45z"/>
		<path d="M105.588,154.217h-3.746l-6.162-12.175l-0.082,0.013v12.162h-3.746v-19.002h3.746l6.164,12.161l0.08-0.013v-12.148h3.746
			V154.217L105.588,154.217z"/>
		<path d="M118.627,149.234c0-0.751-0.187-1.337-0.564-1.757c-0.376-0.422-1.075-0.844-2.097-1.269
			c-1.936-0.671-3.38-1.443-4.334-2.321c-0.956-0.878-1.433-2.104-1.433-3.679c0-1.562,0.538-2.834,1.615-3.806
			c1.077-0.974,2.494-1.459,4.25-1.459c1.87,0,3.35,0.518,4.436,1.553c1.088,1.036,1.61,2.437,1.574,4.2l-0.024,0.083h-3.64
			c0-0.995-0.198-1.744-0.589-2.246c-0.394-0.503-0.999-0.754-1.812-0.754c-0.708,0-1.224,0.226-1.556,0.679
			c-0.329,0.452-0.496,1.04-0.496,1.765c0,0.67,0.201,1.211,0.598,1.629c0.397,0.415,1.128,0.857,2.187,1.329
			c1.871,0.615,3.277,1.377,4.213,2.285c0.937,0.911,1.402,2.157,1.402,3.741c0,1.637-0.548,2.928-1.647,3.868
			c-1.098,0.942-2.576,1.41-4.43,1.41c-1.83,0-3.379-0.501-4.656-1.499c-1.275-1-1.891-2.526-1.845-4.58l0.025-0.081h3.639
			c0,1.184,0.235,2.039,0.706,2.559c0.472,0.521,1.181,0.779,2.131,0.779c0.804,0,1.398-0.222,1.778-0.664
			C118.437,150.557,118.627,149.967,118.627,149.234z"/>
		<path d="M130.513,154.217h-3.759v-19.002h3.759V154.217z"/>
		<path d="M141.234,149.357l0.161,0.801l0.083,0.014l0.164-0.774l3.352-14.183h3.936l-5.524,19.002h-3.909l-5.523-19.002h3.937
			L141.234,149.357z"/>
		<path d="M161.861,145.829h-5.93v5.51h7.098v2.878h-10.845v-19.002h10.817v2.891h-7.07v4.845h5.93V145.829z"/>
		<path d="M170.145,154.217v-19.002h5.971c2.026,0,3.696,0.742,5.015,2.227c1.317,1.483,1.976,3.388,1.976,5.714v3.147
			c0,2.327-0.658,4.226-1.976,5.701c-1.317,1.475-2.987,2.213-5.015,2.213H170.145L170.145,154.217z M173.889,138.105v13.233h2.227
			c0.978,0,1.762-0.469,2.361-1.404c0.598-0.938,0.896-2.146,0.896-3.632v-3.175c0-1.475-0.299-2.681-0.896-3.618
			c-0.6-0.936-1.384-1.404-2.361-1.404H173.889L173.889,138.105z"/>
		<path d="M196.82,145.829h-5.935v5.51h7.099v2.878h-10.843v-19.002h10.819v2.891h-7.075v4.845h5.935V145.829z"/>
		<path d="M210.314,149.234c0-0.751-0.186-1.336-0.562-1.757c-0.375-0.422-1.076-0.844-2.099-1.269
			c-1.937-0.671-3.382-1.443-4.334-2.321c-0.957-0.878-1.434-2.104-1.434-3.679c0-1.563,0.538-2.835,1.616-3.806
			c1.075-0.973,2.491-1.459,4.246-1.459c1.874,0,3.353,0.518,4.438,1.553c1.087,1.036,1.612,2.437,1.576,4.2l-0.028,0.083h-3.637
			c0-0.995-0.196-1.744-0.591-2.246c-0.394-0.503-0.996-0.754-1.812-0.754c-0.705,0-1.223,0.226-1.556,0.679
			c-0.328,0.453-0.493,1.04-0.493,1.764c0,0.671,0.199,1.213,0.599,1.63c0.396,0.415,1.125,0.858,2.185,1.329
			c1.873,0.616,3.276,1.377,4.213,2.286c0.938,0.911,1.404,2.157,1.404,3.74c0,1.638-0.549,2.928-1.649,3.868
			c-1.099,0.942-2.576,1.411-4.43,1.411c-1.829,0-3.38-0.501-4.656-1.499c-1.276-1-1.89-2.527-1.844-4.58l0.026-0.082h3.638
			c0,1.185,0.234,2.039,0.704,2.559c0.471,0.521,1.183,0.78,2.132,0.78c0.804,0,1.398-0.222,1.777-0.665
			C210.126,150.557,210.314,149.967,210.314,149.234z"/>
		<path d="M222.146,154.217h-3.763v-19.002h3.763V154.217z"/>
		<path d="M239.84,151.623c-0.563,0.778-1.366,1.45-2.408,2.016c-1.046,0.566-2.393,0.848-4.037,0.848
			c-2.084,0-3.76-0.64-5.028-1.919c-1.272-1.28-1.91-3.062-1.91-5.342v-5.02c0-2.265,0.62-4.04,1.861-5.328
			c1.238-1.289,2.864-1.934,4.873-1.934c2.097,0,3.688,0.518,4.771,1.553c1.079,1.036,1.604,2.464,1.565,4.284l-0.025,0.079h-3.529
			c0-1.004-0.227-1.759-0.679-2.266c-0.453-0.506-1.118-0.762-1.996-0.762c-0.959,0-1.712,0.373-2.258,1.12
			c-0.551,0.747-0.823,1.822-0.823,3.224v5.049c0,1.43,0.274,2.519,0.827,3.265c0.552,0.747,1.336,1.12,2.351,1.12
			c0.724,0,1.291-0.095,1.703-0.286c0.411-0.188,0.738-0.433,0.983-0.732v-3.746h-2.96v-2.538h6.719V151.623L239.84,151.623z"/>
		<path d="M257.889,154.217h-3.747l-6.16-12.175l-0.082,0.013v12.162h-3.745v-19.002h3.745l6.163,12.161l0.079-0.013v-12.148h3.747
			V154.217z"/>
		<path d="M266.577,154.217h-3.706v-3.299h3.706V154.217z"/>
		<path d="M275.371,136.653h-3.744v-2.795h3.744V136.653z M275.371,154.217h-3.744v-14.116h3.744V154.217z"/>
		<path d="M285.954,150.523c0-0.415-0.164-0.77-0.49-1.065c-0.326-0.293-0.952-0.652-1.884-1.077
			c-1.479-0.526-2.585-1.126-3.327-1.799c-0.739-0.673-1.112-1.536-1.112-2.584c0-1.151,0.471-2.133,1.412-2.947
			c0.94-0.813,2.19-1.221,3.745-1.221c1.612,0,2.897,0.421,3.862,1.262c0.963,0.841,1.422,1.901,1.377,3.177l-0.027,0.082h-3.624
			c0-0.59-0.134-1.064-0.399-1.427c-0.268-0.361-0.668-0.543-1.203-0.543c-0.44,0-0.816,0.141-1.127,0.422
			c-0.306,0.279-0.461,0.62-0.461,1.018c0,0.416,0.151,0.753,0.456,1.011c0.303,0.258,0.947,0.613,1.935,1.064
			c1.52,0.517,2.651,1.118,3.391,1.806c0.744,0.688,1.115,1.586,1.115,2.688c0,1.202-0.492,2.187-1.474,2.951
			c-0.981,0.766-2.277,1.146-3.886,1.146c-1.675,0-3-0.469-3.979-1.411c-0.977-0.939-1.438-2.003-1.383-3.188l0.027-0.082h3.404
			c0.019,0.761,0.206,1.311,0.558,1.651c0.355,0.338,0.842,0.507,1.466,0.507c0.534,0,0.938-0.129,1.215-0.387
			C285.816,151.317,285.954,150.967,285.954,150.523z"/>
	</g>
</g>
<g>
</g>
<g>
</g>
<g>
</g>
<g>
</g>
<g>
</g>
<g>
</g>
</svg>
