<?xml version="1.0" encoding="utf-8"?>
<!-- Generator: Adobe Illustrator 15.0.0, SVG Export Plug-In . SVG Version: 6.00 Build 0)  -->
<!DOCTYPE svg PUBLIC "-//W3C//DTD SVG 1.1//EN" "http://www.w3.org/Graphics/SVG/1.1/DTD/svg11.dtd">
<svg version="1.1" id="Calque_1" xmlns="http://www.w3.org/2000/svg" xmlns:xlink="http://www.w3.org/1999/xlink" x="0px" y="0px"
	 width="331px" height="188.687px" viewBox="-119.008 -67.84 331 188.687" enable-background="new -119.008 -67.84 331 188.687"
	 xml:space="preserve">
<metadata><?xpacket begin="﻿" id="W5M0MpCehiHzreSzNTczkc9d"?>
<x:xmpmeta xmlns:x="adobe:ns:meta/" x:xmptk="Adobe XMP Core 5.0-c060 61.134777, 2010/02/12-17:32:00        ">
   <rdf:RDF xmlns:rdf="http://www.w3.org/1999/02/22-rdf-syntax-ns#">
      <rdf:Description rdf:about=""
            xmlns:dc="http://purl.org/dc/elements/1.1/">
         <dc:format>image/svg+xml</dc:format>
      </rdf:Description>
      <rdf:Description rdf:about=""
            xmlns:xmp="http://ns.adobe.com/xap/1.0/"
            xmlns:xmpGImg="http://ns.adobe.com/xap/1.0/g/img/">
         <xmp:CreatorTool>Adobe Illustrator CS5</xmp:CreatorTool>
         <xmp:CreateDate>2013-09-07T20:52:57+02:00</xmp:CreateDate>
         <xmp:ModifyDate>2013-09-07T20:52:58+02:00</xmp:ModifyDate>
         <xmp:MetadataDate>2013-09-07T20:52:58+02:00</xmp:MetadataDate>
         <xmp:Thumbnails>
            <rdf:Alt>
               <rdf:li rdf:parseType="Resource">
                  <xmpGImg:width>256</xmpGImg:width>
                  <xmpGImg:height>148</xmpGImg:height>
                  <xmpGImg:format>JPEG</xmpGImg:format>
                  <xmpGImg:image>/9j/4AAQSkZJRgABAgEASABIAAD/7QAsUGhvdG9zaG9wIDMuMAA4QklNA+0AAAAAABAASAAAAAEA&#xA;AQBIAAAAAQAB/+4ADkFkb2JlAGTAAAAAAf/bAIQABgQEBAUEBgUFBgkGBQYJCwgGBggLDAoKCwoK&#xA;DBAMDAwMDAwQDA4PEA8ODBMTFBQTExwbGxscHx8fHx8fHx8fHwEHBwcNDA0YEBAYGhURFRofHx8f&#xA;Hx8fHx8fHx8fHx8fHx8fHx8fHx8fHx8fHx8fHx8fHx8fHx8fHx8fHx8fHx8f/8AAEQgAlAEAAwER&#xA;AAIRAQMRAf/EAaIAAAAHAQEBAQEAAAAAAAAAAAQFAwIGAQAHCAkKCwEAAgIDAQEBAQEAAAAAAAAA&#xA;AQACAwQFBgcICQoLEAACAQMDAgQCBgcDBAIGAnMBAgMRBAAFIRIxQVEGE2EicYEUMpGhBxWxQiPB&#xA;UtHhMxZi8CRygvElQzRTkqKyY3PCNUQnk6OzNhdUZHTD0uIIJoMJChgZhJRFRqS0VtNVKBry4/PE&#xA;1OT0ZXWFlaW1xdXl9WZ2hpamtsbW5vY3R1dnd4eXp7fH1+f3OEhYaHiImKi4yNjo+Ck5SVlpeYmZ&#xA;qbnJ2en5KjpKWmp6ipqqusra6voRAAICAQIDBQUEBQYECAMDbQEAAhEDBCESMUEFURNhIgZxgZEy&#xA;obHwFMHR4SNCFVJicvEzJDRDghaSUyWiY7LCB3PSNeJEgxdUkwgJChgZJjZFGidkdFU38qOzwygp&#xA;0+PzhJSktMTU5PRldYWVpbXF1eX1RlZmdoaWprbG1ub2R1dnd4eXp7fH1+f3OEhYaHiImKi4yNjo&#xA;+DlJWWl5iZmpucnZ6fkqOkpaanqKmqq6ytrq+v/aAAwDAQACEQMRAD8A9U4q7FXYq7FXYq7FXYq7&#xA;FXYq7FXYq7FXYq7FXYqslmhhQyTSLGg6u5Cj7ziqE1XVrfT9Mkv2HqxqBwCEfEWIAoenfFWB33n3&#xA;WrgkQlbWM9Agq1Pdmr+FMNItJp9W1Cc1nuZZP9Z2P6zhVD+riqrFfXMJrDK8Z8UYr+rFU0s/OevW&#xA;pA+sesg/ZmHOv+y+1+OClZPpX5g6fcER3yG1kO3qD4oz8+640tspjljljWSNg8bCqupqCPYjAldi&#xA;rsVdirsVdirsVdirsVdirsVdirsVdirsVdirsVdirsVdirsVdirsVSa7836FaakNOmnKz1Cu3ElF&#xA;Y9AzYqxv80J5FfT4uR9MiRivao4iuEIKX2lw7/lze8mJEd2EQHsP3bUH0scVYp6uFXerirvVxV3q&#xA;4q71cVd6uKproXmrUdHmBhb1Lcmslsx+BvGn8p9xir1PRNcsdYsxc2rdNpIm+2jeBGRSmGKuxV2K&#xA;uxV2KuxV2KuxV2KuxV2KuxV2KuxV2KuxVRtr6yu+f1W4in9M8ZPSdX4nwbiTQ4qk13510a111NGk&#xA;9T6wzLG0oA9NXenFSa17+GKpnqer6bpcAnv51giY8VLVJJ8AACTiqva3VvdW8dxbyCWCUco5FNQR&#xA;iqrirw/zVLTzJqQ8LiT/AIkckhk35q3AN3pwH2TE7g/6xH9MAVLtPlJ/LrVN9heR0Hz9PFWK+rhV&#xA;3q4q71cVd6uKu9XFXerirvVxVH6Jr95o9+l3atuNpIz9l07q2KvatH1a01bT4r61asco3U9VYdVb&#xA;3GRSjMVdirsVdirsVdirsVdirsVdirsVdirsVSTzf5jPl/SPrywieRpFiRCeIqwJqfoXFXQa1+kv&#xA;KEmqrH6RltZZPTrWjKrAivzXFWEfk/NXU9QTl1hVuPjR6V/HCUJT5iulH5iyPQ0S8hqP9XgD+rFW&#xA;Q/nHMUTSU7MZzX/V9MfxxCovQL6WD8q5Z43MbxQ3Kxuv2gTI1DXxq2KUk/KS9nbXbu3MjGF7ZpWQ&#xA;nYusiAN86McShi3maWnmTVh4Xlx/ydbCrKfzWk43Olf8wx/WMAVAaZOD+XOsL3W7hNf9YoP4YqxP&#xA;1sKu9bFXetirvWxV3rYq71sVd62Ku9bFWYflt5nOnawthO9LO/ITc7LN0Rvp+yf7MBV7FgS7FXYq&#xA;7FXYq7FXYq7FXYq7FXYq7FUo1LzVoum6taaVdzFLy94+ioUkfG3BeR7cmFMVYz+csir5atFr8RvU&#xA;IHsIpK/rwhV/leen5TSSg8jHZ3xI91aU0xVjP5MzKfMF4n7RtCw+QkQH9eJQknmi6RfPt443VL0V&#xA;/wBiwB/VirKfzsmAk0dO4Fw1fmYx/DEKqaLPy/J++J2CCZQfnID/ABxVJfyhk5ea3H/LrJ/xJMSr&#xA;GvM1wreZNWZfsteXBHyMrYqyX805T9c0dmNWbT4yT7ljiFQukyf8g410+F1bf8SGKsS9bCrvWxV3&#xA;rYq71sVd62Ku9bFXetirvWxVwnIIINCNwRir6I8paz+mfLtlfk1lkTjP/wAZEPF/vIrkUpvirsVd&#xA;irsVdirsVdirsVdirsVdirxz8zbpk/MfSzsfSS14j5Ts38cKE7/PCZU0PT0/aa6JHyWNgf14hKzy&#xA;rcgfk7qDAVKQXqGv+UG/5qxVjn5Kzr/iy4U9XspAPn6kZ/hiUMe833KJ501R68lS9kJp/kyGo/DF&#xA;WZfnnKovdJWvxCOYkexZafqxCtaNPz/JfVNqenMy18f3kbf8bYqk/wCT8hPnOMV6wS1+4YlWM+Yp&#xA;aeYNTH/L3P8A8nGxVk/5p3SveaIF6HSoJAfZ2en6sVQeiyf8g98xmvSey/4mcVYp6uFXerirvVxV&#xA;3q4q71cVd6uKu9XFXerirvVxV7F+SGpGbSdRsS1fq0ySqD2Ey02+mPAUvSsCuxV2KuxV2KuxV2Kp&#xA;X5i8y6T5es47zU5DHBLMkCFVLHk9TuB2CqScVRWqajb6bpt1qFxX0LSJ5pAoqxVBUgDxxVB+VfMV&#xA;t5i0O31W3jaFJuQaJyCVZGKsKjruNsVRFnrukXt/d6fa3cc15YkC6gU/EhP66dDTodjvirw/83Lt&#xA;I/zAkbekEdvy+hQ230HChlX59zcNO0iOn2ppWr/qqo/42xCUL5UumH5LayxAPA3EY+TKn/NeKEg/&#xA;JW4p51CUr6lrKvyoVb/jXFWNecJaebdbHhf3X/J5sVZv+ek4bUtIkGwe2ZgD7tXEKp6Nck/kfrhX&#xA;Yx3qoT48pLYn8GxVKvyemb/HdooNA0U4b3Hpk/wxVi+uXLPrWoO32muZmNPEyE4qyf8ANCSl35f9&#xA;9Esz/wANJiqG0K4r+X3mhKfYm09q/wCtI4/41xVinrYq71sVd62Ku9bFXetirvWxV3rYq71sVd62&#xA;Kplo3mnWtFW4Gl3TWpugqzMgXkQpJFCQSOvbFUPd63ql4xa7vJ7hj1Msjv1/1icVWW2qX1qwa1uZ&#xA;YGHQxOyH/hSMVZZoP5vebdLdVuJ/0lbD7UVzu9PaUfHX51xV7J5Q896H5otybJzFeRis9lJQSL7i&#xA;n2l9x9NMCWRYq7FWEah5tv4PzW0zy6koGnXFk7SxFRvMRI4PLr9mIAfPFWP/APOQV1w0bSYP9+XE&#xA;j/8AAJT/AI3whWTeedR5flfe3tf96LKI1r19fgOp/wBfAqV/kTdet5KkT/fF7LH96Rv/AMb4qxX8&#xA;otREv5l60a1W6junFN9/rCMOvtXCrG/zhuCfzD1Ra1CC3Vf+keM/rOKGWfnzeF9O8tEHkJ0nl59z&#xA;8MP6+WKUH5Tuiv5I+ZDXkVunQLXoHW3H8TiqTfkrcEefrVB/uyGdT9EZb/jXFDF/M8tPMmrD/l8u&#xA;P+TrYqzX87Zw+p6JINhJpsbAH3djilZot4B+SPmCMCpOoxVPahNuR/xDFUu/J2dh+YelqOji4Vvk&#xA;LeRv4YoYxrUv+5i//wCYiX/iZxVkP5iTu03l8sxYnQtPNSfFCcVWeX5l/wAA+bRUcvU00gd6etJX&#xA;FWK+rirvVxV3q4q71cVd6uKu9XFXerirvVxV3q4q71cVd6uKu9XFXeriqI07Vr3Tr2G+sZmguoG5&#xA;xSqdwf4g9x3xV9Mfl/5ztvNehJeLSO9hIivoAfsyU+0P8l+o+7tgSg/K3na51bzt5k0KURiDS2T6&#xA;mVBD0X4JeVevx0+WKvOPM2sel+f1o3L4YbqztuVdqSxoreHeU4VRX/OR13/pWhW1fsR3EhG/7ZjU&#xA;f8QxCpp5t1Pn+Qdi5NTPbWMBJruY3Sv/ACaxVS/5x7v1Xy/rit9m2mSY9tmjPf8A554qwf8AJW+Y&#xA;fmPYqxJa5S4RjtufReTf/gMUJf8Amrch/wAwtaI2AmVd/wDJjVf4Yqyj86bx5dF8mMSKPYNKKdKv&#xA;HBWn3YpQvle8VPyV82gCrLdQAj2keFBiqWfkvcMPzI0pB0kFwrfIW0jfrXFDFtdnY63qBYksbmYk&#xA;nck+ocVZn+cl0ZNS8vMKhH0O0kVT25vJ/TFVmjXcY/JrzBGT8Z1K3p/suBH/ABA4qgvyguSn5jaM&#xA;QK1eZf8AgreRf44qxW+l/wBNuP8AjI//ABI4qyPz/eRyy6Bwr+70PT0aviIzXFVvl+T/AJ0jzWfD&#xA;9H/9RDYqxf1cVd6uKu9XFXerirvVxV3q4q71cVd6uKu9XFXerirvVxV3q4q71cVd6uKs6/JvzQ+k&#xA;edbWBnpaaoRZzrU05Of3LU8RJQfInFUz/KPXxN+cOpScttXN9QV6kyfWPDwjOKWI+dtaK/mbquoA&#xA;1NrqbFSP+XaXiKb/APFeKGV/85GXofzfp8CtySPT0fY1FZJpP4KMUrtf1Tn/AM4++X1J+N79oGFa&#xA;bRvcMNu+yriqn+Smpi20TzvU/Y036xuK/wBzHN/zXirFPytvfQ/MLQn/AJrpYv8AkaDH/wAbYoUf&#xA;zJuTJ5+18luVL2ZKin7DFabeFMVZB+ad0ZPL/kU7hRo0QC12qqopP08cUqXlu9p+UHnCHjWtzYfF&#xA;X+aZT/zLxQg/ydnYfmTonE0JklH0GCQH8MVYrqVy0mo3Tuas00jMfcsScVZf+a176955belF/wAP&#xA;6eUHejK77/8ABYqt0i4Q/lL5gSvxrqVmSPZlan/ETiqH/KW5CfmNoZO9Z2Wn+vGy/wAcVYtc3KyX&#xA;Msi14u7MtetCa4qn3naWk2jf9six/wCTWKr/AC/cN/g7zUlfhKWLH5rcgD/iWKsZ9XFXerirvVxV&#xA;3q4q71cVd6uKu9XFXerirvVxV3q4q71cVd6uKu9XFXeriqtaX8trdw3URpLBIssZ/wApCGH4jFWa&#xA;fkvpkw/Nm0tiSDpzXRmI2P7uN4v+JMMUsW87QSw+edctB8TjUrlE3ArWZuPfvXFDM/8AnIa2ay86&#xA;WMZYup0y3Csa78JJY+/+rXFKzWrR4/yA8v3darLq0zU9iJ46/fFiqn+UNpJdaL56kQmqaHPGACBV&#xA;nVmUf8k8VYx+XCNcef8Ay7GvUahbSbeEcoc/guKG/wAyFNv5/wDMMZqK6hcvv/xZIX/42xVkH5p2&#xA;rW3l/wAiTNU+tosVCTUdpKb+Hq4pW+WYXf8AJzzncVHFLrT9u+0wB/5ODFUF+TCmf8zdCjHUSSvs&#xA;abRwSOf+I4oYpqhaLU7uJ/tJNIrfMOQcVZj+bULWt55ZjZg1fLunUPTZVdNx81xSp6TAG/KPzBdG&#xA;vw6nZAU6fCkg/wCZuKqH5Qj1vzJ0FK0/0gt/wEbN/DFDE7kiK4liBqI3ZQfHiaYqyPz0skMuhBww&#xA;9TRbGReVakNGTUV7eGKrvLtW8k+bZq7IlgpH+vdV/wCNcVYt62Ku9bFXetirvWxV3rYq71sVd62K&#xA;u9bFXetirvWxV3rYq71sVd62Ku9bFURp8El7f21lFvLdSpCgG55SMFH4nFXvf5WaEbf86fPNwU+C&#xA;1aRU22X67OJ1p0/ZT7sCWB+dNKLf85CDT6fBdapYuTv9mYRO5H2enI4VTv8A5ylg9PXdDuv9+2ss&#xA;Xf8A3VIG/wCZmKph5u070v8AnGrRiR/ci1utz/v+Rj/zOwKof845aeLryz5xYiv1qOO233G0U1RT&#xA;r/uzFWA/kfD9a/NLQ46VVHmlJpUD07eRxX6QMKrPzrj+rfmjr0XSssUnWv8AewRyf8bYqzb/AJyF&#xA;sfqnlzyN8NDDaSW7knf4IrfiKDbs2KqPkez9T/nHnzfM23qXRZaioIhW3f8AXUYqkP8Azj0gm/M+&#xA;xY0/cwXMgrv1iKbf8HirDvOa/V/OGu29Avo6hdR8R0HGdxT8MVei/wDORlqbXWPLlRSmkxw8jsx9&#xA;J22I9uWKqPl63Lf846eZ7qtOOqw1B7hWtV2+mTFUp/IRfW/NTR+hEYuXYH/mFkAp9JGKsP8AMVYf&#xA;MGpwlQhiu50KDoOMjCm3hirMPzigFrdeU1BLBvLWnVY9CVDpt9CjFVDywv8AyCrztcGm8+lIviKT&#xA;SE/fyGKsF9XFXerirvVxV3q4q71cVd6uKu9XFXerirvVxV3q4q71cVd6uKu9XFXerir0z8gPKsuu&#xA;+eYb+RCbDRaXUz9vW6QL8+fx/wCxxV9WJbwRyySpGiSzEGaRVAZyo4ryI3NBsK4FeJeYdH5/85Pa&#xA;ExX4ZrIXrn/jDFOin/gogMVQn/OWEH+47y5df77muouv+/Fjb/mXirKvzG0sxf8AOP01hxINnplg&#xA;Kdx9XaEnr/qYqln/ADi1b8fIeoXJHxT6lIB0+ykMQH4lsVeb/wDOPVgV/NuWErvp8F2SCakcWEPU&#xA;bft4qhf+chLQn82rmNKB7yK0IoO5jWIV8fsYq9D/AOcqbZE8saFMoAWG7eFR3AeImg9v3eKrPy6s&#xA;g3/ONmutsDPbanPtUkmJGG/v+6pirDv+cXYzN+YN5Jvxh0yZqjpVpoVAP0E4qw/8xbQn81dcs+BB&#xA;n1WUcVO59eXlt1688KvSv+csI+GpeXJ+JHqQ3Kcux4PGafRzwKt8sWpb/nF/Xm48/Unkmoe3pzw7&#xA;j5enXFWNf841p635mxNxB9GzuJKntUBKj/g6Yqwnz6BB568xwg1EWqXqAnvxuHGFXof/ADkbbm2v&#xA;fKtSKjSI4io6Axt2P+ywKlflxKfkN5uuaD49Sso6/tfAyHf2+PbCrzL1cVd6uKu9XFXerirvVxV3&#xA;q4q71cVd6uKu9XFXerirvVxV3q4q71cVTXyz5e1nzLrMGj6PAbi8uDsOioo+1JI37KL3P8cVfZn5&#xA;d+RdP8l+WoNItj6s5/e311ShmnYDk3sopxUeHvU4FZPiqHfTdPfUI9Re2ia/ijaGK7KKZVjchmQP&#xA;TkFJHTFWEfnP+XOoee/L1jp1hcR209tfRzvJNXj6JVo5KBQasA/IDvSmKsg89aFPrPkjWdGskU3F&#xA;3ZSw2kbUC+pwPpip2HxAb9sVSL8kfKmq+WPy9stO1aL6vqDyS3E8HIMU9V6qpK7V4AVFTirEPyi/&#xA;LrzJ5f8AzV826tqNl6GmyieKwuajhKtxcrOvpgHoEQcvA7Yqlf5yeRfMur/nJ5avtP0y5u9MlSzS&#xA;6u4kLRRGG6dpfUkApHSMhvi69sVZT/zkn5e1fWvy+iXSrSW9uLK/iuZIYEMsnpCKWNiFWrUBkBNB&#xA;iqYflz5W1W1/JG20C7ge21K4sLxGt5RwdHu3ldQ4NOJpKNj074qwH/nGTyV5o0bW9bv9a0q501Pq&#xA;6WsLXUbwl2MnNuCuByA4D4htiqRed/y5823f59Ca20i5l0u8v7W6F6iObf0R6ZmZpqcV4kNUE18O&#xA;oxVmP/OUHlLzDrem6DeaPYT6gbCW4juIrWNppFFwIircEDMRWGle2Kpl5X8ja+n/ADjzN5cntXi1&#xA;u6s7uRLJ6I4kkleWKM8vslhxqD0rTFWFf84zeSPNGnecNR1bV9KubC0gspLVHuo3hJnkljNEVwvK&#xA;ixty8NsVYl+ZX5Yeerr80tVgsdFuJodVvXuLS7iic2xS4fnyaUDgvHl8dTtir0j/AJyZ8i+Y9Xt9&#xA;Cv8AQdOm1CKwWa2uILVGmmUPwMZCKGdl+Agnt9OKpXoX5ZecI/8AnHnWtLfTnj1u/vV1GDT2XjcG&#xA;GIwjgyHcPSJ2C9e3U4q8RPkzzqCQfL+pAjYg2c//ADRirv8ABvnT/qwaj/0iT/8ANGKu/wAG+dP+&#xA;rBqP/SJP/wA0Yq7/AAb50/6sGo/9Ik//ADRirv8ABvnT/qwaj/0iT/8ANGKu/wAG+dP+rBqP/SJP&#xA;/wA0Yq7/AAb50/6sGo/9Ik//ADRirv8ABvnT/qwaj/0iT/8ANGKu/wAG+dP+rBqP/SJP/wA0Yq7/&#xA;AAb50/6sGo/9Ik//ADRirv8ABvnT/qwaj/0iT/8ANGKq9n+X3n+8k9O28ualI2wJ+qTKor05MyhR&#xA;9JxV6J5R/wCcY/PGqSJLr0kWh2Z3dCVnuSPZIzwFf8p9vDFX0X5I/L7yx5L042eiW3B5KfWbySj3&#xA;ExHQyPQbDsooo7DFWSYq7FXYq7FXYq7FXYq7FXYq7FXYq7FXYq7FXYq7FXYq7FXYq7FXYq7FXYq7&#xA;FXYq7FXYq7FXYq7FXYq7FXYq7FWndUUu5CqoJZiaAAdSTir5M8xfn9+annjzPPpP5dxTW9inM28N&#xA;pCsl1JCpAM0zuren1/Z40qBUnfFVPSfzj/P7yd5hstM8y2NzqZvHVINMvrcJLPUgUt540DM+9P2w&#xA;D2xV9OeZPN2n+WvKVz5l1lHtbe0gWaa2JVpRI9AsA4koXLsEFGpXvTfFXyxL+dH57+f9WuU8pR3E&#xA;FrEeQstMhVhEhJ4+rcMpbkad2APYYqm/kb/nI7z55b8zpoP5jo8loZBFcy3MAt7u05UpIQipzjHU&#xA;1WtNwexVe1/np5s1vyx+Wl/reg3YtdQikthDchI5QFlmVW+GVXQ1VvDFUF/zjx5z8yeb/IMmq+Yb&#xA;z67frfTQCb04ov3aJGVXjCsa9WPbFWN/85N/mV508k/4b/w1qP1D9IfXfrf7mCbn6P1f0/7+OSlP&#xA;UbpirMr3zVrsf5Er5pS6prh8vRagbzhGf9Je0WUyemV9P7ZrTjT2xV5F+Rn/ADkZ5i1LzauhedtQ&#xA;S6g1TjFp140UMHpXNfhjb0UjBWWvGp6NTsTir0j/AJyQ88eZ/Jvkex1Py5e/Ub2bU4raSb0opqxN&#xA;bzuV4zJIv2o1NaVxVNfyg81a75h/KLTvMGr3X1nVriK8aW54Rx1MNzNGnwRqiCixqNlxV83aB+dv&#xA;/ORPmG5ktdC1G41K4hT1ZYrbT7KRlSoXkQtudqkDFU60z/nJT83PKmsJZ+drA3cdaz213aixuuBP&#xA;2oiiRL8qoQfxxV9TeXPMOl+YtCstb0qX1tPv4hLA/Q0OxVh2ZWBVh2IxV84/md/zkf5r1DzO/lj8&#xA;uFbjHKbYXkMIubm6mU0YQIVdQm2xCknrUYqxmT82/wDnITyFfW03mYXLWk7VFtqkCmKam7KsqqrK&#xA;QOyvt4Yq9y89fmbqL/kRc+e/Lhl0q+kitZLf6xErPEZLyKGQcJkZHBDMFbjQj4hiq3/nG/zx5n85&#xA;eR77U/Md79evYdTlto5vSihpEtvA4XjCka/akY1pXFXqc00UMTzTOI4o1LySMaKqqKkknoAMVfKP&#xA;m/8A5yL/ADG82eZZNF/LqKSCz5slr9VgE95cIp3lbmr+mp+1RQKDqcVS60/O788fIGtW8HnGK4ub&#xA;ST4msdShWNpI6/E0NwqhqivWrAdxir6ftvNllrXkR/M+iTE29xYS3VpIQOSOsbHiynkOSOpVh4jF&#xA;XlH/ADjP+Z/nfzrfa/F5l1L6+llFbNbD0LeHiZGkDf3Mcda8R1xVnP57eatd8rfltqGs6FdfU9Sg&#xA;lt1in4Ry0Ekyo3wyq6bqfDFUD/zjx5z8yeb/ACDJqvmG8+u36300Am9OKL92iRlV4wrGvVj2xV4B&#xA;Y/nf/wA5A61rdzpmg6lNf3MTSMttbWFnK4jR+NaCAmgqN8VTO3/5yJ/OzyhqkUPnKxa5jc8mtdQt&#xA;BYyugNCYZI0iH+y4sMVfUHk3zdpHm7y3Z6/pLlrO8UkI9A8bqeLxuATRlYUP4bYqnWKuxVZNEk0M&#xA;kL/YkUo1PBhQ4q+I7zyt+cP5LebLnUtJtp2tFDxJqkMP1i0uLUsGAmADBCeIJVqEHoe+Ks48of8A&#xA;OYCXF/aR+dtCtzHE9Y9TsAS8DMChkEMpkP2WPIo4NK0B6Yqyn/nLjXFl/K7RXsJ1ksNU1CGUTRmq&#xA;yw/V5JY6HurVVvoGKsp/5xi0mysfyd0i4t1X1tSe4uruRf25PXeIV/1Y4lX6MVeZ/wDOaOl2cUvl&#xA;jV0QLeTC6tZpAN3jj9N4wT/kF3p88VTv8yL+e8/5xK0u6nJMz2WlB2bqeMkScj86VxVOf+cRG5fl&#xA;VMf+1pcf8m4cVYd/zmu/H/Bvv+kv+xTFXouot/1i4jf9+jbn/pwTFXyXo/kPVNV/L7VfOGmlpDoV&#xA;2kd/Av2lt5EDCdab/u3+17GuwU4q9A/MD82188/kJpdtqEvLzHo+s2sOocj8UyG0uhFcj/XpR/8A&#xA;KHgRir3T/nHxq/8AOP2jn/ijUf8AqMucVeOf84aPy89a2P8AtVn/AKiIsVetf85WaLpt5+U13qVw&#xA;ifXdJnt5bKU0DgzTJBIinrRlkqR7A9sVYn+QevahD/zjb5uuo5CJdH/S31Fqn4OFilyKf89JCcVY&#xA;9/zhjpNjda95k1aUK15YW9tBbVoSq3TSGRlr0P7hRXwPvir6nvdN06/WJL61hulhkWaFZ41kCSpX&#xA;jIoYGjCpoRvirzj/AJyYNPyR8yH/AJgv+o+3xVjH/OHDcvyy1M/9rqf/AKhLXFWe/njf3Fj+Unmm&#xA;4t+XqGxeL4eoWYiJz9Cua4q8i/5wv0yzaw8y6uUDXplgtFkPVYgrSMoP+UxFfkMVZr/zlZpVld/l&#xA;HeXsyr9Y0y5tp7VzswaSVYGVdu6Skke1e2Kse/5xr1G4uvyE1+KViyWNxqMEA8ENpHMQP9nMxxVj&#xA;P/OFj8tT81/8YLP/AInNir0//nKRuP5M6sf+L7T/AKiUxVK/+cRG5flVMf8AtaXH/JuHFXk3/OLE&#xA;nL86dRH/AC5Xv/J+PFXvP/OSGi6dqf5Q63Ldovq6csd5ZzNSscqSKPhJ/nRmT6cVYT/zhpfzy+TN&#xA;dtGasFvqCyRDwaWFQ30fuxir6DxV2KobVL2Sx027vY7aW9ktoXmWztwGmlKKWEcYYqCzUoN+uKvm&#xA;fyx/zmhGmrX8Pm7QpILJp2+pGwo80CD4fSmSZo+bAipcFf8AVxV5p+f35n+R/wAwNX0yTyloslrd&#xA;Q+ot5fSQxxT3TSlfTThEzl+JBoWNanb3Ve7eefyq1/WP+ca9H8viJ5fMeh2lpexWn7ZlhiKy24/y&#xA;lildVHdgBiryz8iP+cltN8ieXn8r+ZrG6uLG3lkksLi0CNJH6rcpInjkeIceZLAhq7nbFUg/ND8w&#xA;tY/PHz/pGleXNOljtYq22k2ktDJWZg01xNwLKgoi8qEhVWtcVfUP5hflo+ofkhdeR9JHq3Flp1vD&#xA;p1aKZJbDg6DwDSmHjX/KxV85fkF+f9n+W1tqPlrzPY3T6dJctPG0CqZ7e44iOVHikaP4T6a96qQd&#xA;jXFUq/N78zL/APOjzxo2l+W9OmW2hLWukWsvH1pJbhlMssgUsqCka1+IhQtScVfUv5i6RHof5C61&#xA;o0Tc4tL8vvZo/Sq29sIwfp44q8v/AOcL4oLvyf5pt7iNZoJruOOaJwGR0eAhlZTsQQaEYq8T/Pj8&#xA;r7n8u/OUtrArHy/qXK40eY1I9OvxwMT1eEmnuvE98VfUn/OOzV/5x50Y/wDFGpf9Rtzir5k/5x//&#xA;ADZ0D8ufMep6rrNtdXUV3Ym2gjs1jZvU9VJBz9SSIBaJ1Ffliqffm9+fWs/my1j5S8s6RNBYS3Cu&#xA;ltX1bu7mAIjBWP4VVeRPGp33J2xV9J/lV+VieWfynXyhqhDXOpQznWfTII9W8QpIikdeEdEr3pXF&#xA;Xyv5H83+YvyI/M7ULLWrF54KG01K1U8PWh5cormBm2P8y16gkGh6KvSPPv8AzmbFLb2sXkTTZorj&#xA;1Vku7nVY46GNdzCkUUklefQtzFO3WoVZx+c+t61rX/OMOpavrWmHR9TvIbCW404sXMZbUIONahSv&#xA;JaNxIqtaHcYq8d/IX/nIjyx+XPk+80TVdOvby4uNQkvUltfS4BHghiCn1HQ1rCe2Kva/LX5q+WPz&#xA;w0PzN5S02xu7B3051aa7EfEGaqRsPTdzVHo2Kvn/APKP80dU/JXzhrGi+ZtMmeznZIdUtIwBcRSw&#xA;cvTliDlVcMsh/aAYEEHbdVNfz6/5yMsvzC0q18s+WLG6g05p1mu5bpUE08iVEUSRxtLReR5faqTT&#xA;YU3VfQ35JflzN5Y/KW18v6qhivtSjmuNUiGzI92tDH3+KOPip9xir5d/Lzzpqn5G/mjqdjr1jJcW&#xA;yhrHU4I6LI0YYPFcQciFaoAZQTQq3UYqyD8/f+cjtJ8+6Fb+WfLNlcxWLzpPe3N2qJJI0dfTijjj&#xA;aT4eTVJJrUDbFX0P/wA4/eTr/wAp/lZpOnalEYNSuPUvbyBhRo2uGLKjDsyx8Qw7GuKvkv8AJ38z&#xA;NE/L78ytQ17WYLm5tGhurVY7NY3k9SSVWUkSPEvH4DXf6MVZT+cP/OSV/wDmNpkflHyzpM9pY3ss&#xA;f1gORLdXTKwMcKxx1CrzAOxYsadO6r6D/wCcefy4vPIv5eQ2mprw1nUpTf6jFsTEzqqpDUfyIg5f&#xA;5RbFXpuKuxV2KvFvzY/6Ff8A0vJ/jz9Hfpnb6z9X+sfW69vX/R/72v8Axk7e2Kof8rP+hVP07D/g&#xA;j9H/AKc5/wCh/W/rf1j1O31f9I/Fy/4x74q9xxV4X+aX/QqP+IJv8bfUP07z/wBM+qfXPX9Tev1j&#xA;9Hb8/H1N/wAMVZT+Tn/Kivq8/wDyrP6h6nEfWvS9T67w7ep9a/0nhX+bauKvS8VeJ/mz/wBCufpt&#xA;/wDHv1D9N1H1j6v9a+tVpt6/6O+OtP8AfmKpv+TX/Qvnqz/8q0+o/XuB9anrfXvSrv8A72f6T6da&#xA;Vp8PT2xVn3m//Dv+F9U/xJx/QH1aT9Kc+fH6vxPqV9P46cf5d8VYt+T3/KoP0bqH/Ks/R+o+sn6Q&#xA;9D6xT1ePw1+sb/Z8MVRH5t/8qp/w/b/8rJ+rfoj6wv1X6z6lfX4tT0/R/eV41rTt1xVH+Qv8Bf4D&#xA;tP8AB/p/4Q4XH1T0/V4cPWk9enq/vP73n1+jFXin/WE3/Lj/ANzPFXqn5Yf8qS4v/wAq9/RHr8T6&#xA;31L0/rfCo/vOX+kca/zbYq9AxV57+b3/ACpX9Hwf8rL+oenRvqf1nl9a47c/Q9D/AEmnSvDFWCfl&#xA;x/0KJ/iGD/Cf1D9M8x9U+vfXuXqfs+j+kvg51+zx+KvTFXrH5j/4J/wZqP8Ajjh/hf8Ac/pD1fV4&#xA;f38fpV9H95/fcOn6sVeIf9YTf8uP/czxV6D+T3/Khf0lqH/Ks/q/170U/SHofW6+lz+Gv1jb7Xhi&#xA;q784/wDlQNIf+Vl/UPrXH9xy9X696f8Ak/VP9J4V+jFUj/Kf/oVv9Nx/4D+ofpyp+rfWfrX1rlTf&#xA;6v8ApH468a/3fbFXtuKvNfzk/wCVF/Vrf/lZv1HnxP1T1fU+u+nU19L6r/pPCvXjtX3xVif5X/8A&#xA;Qp36fi/wX9Q/TfIfVPrv1z1fU2p9X/SX7fh6e+KvdsVfOF1/0Jb9Zl+sfUvX5t6tf0l9uvxdPfFX&#xA;on5Xf8qC+sn/AJV9+h/0j6e/1fj9d9Om/wDe/wCkcf5vxxV6XirsVf/Z</xmpGImg:image>
               </rdf:li>
            </rdf:Alt>
         </xmp:Thumbnails>
      </rdf:Description>
      <rdf:Description rdf:about=""
            xmlns:xmpMM="http://ns.adobe.com/xap/1.0/mm/"
            xmlns:stRef="http://ns.adobe.com/xap/1.0/sType/ResourceRef#"
            xmlns:stEvt="http://ns.adobe.com/xap/1.0/sType/ResourceEvent#">
         <xmpMM:DocumentID>xmp.did:F77F117407206811822ADB7C4756B3A7</xmpMM:DocumentID>
         <xmpMM:InstanceID>xmp.iid:F77F117407206811822ADB7C4756B3A7</xmpMM:InstanceID>
         <xmpMM:DerivedFrom rdf:parseType="Resource">
            <stRef:instanceID>uuid:981E3EA93164DF118E6D90B556E55533</stRef:instanceID>
            <stRef:documentID>uuid:971E3EA93164DF118E6D90B556E55533</stRef:documentID>
            <stRef:originalDocumentID>uuid:971E3EA93164DF118E6D90B556E55533</stRef:originalDocumentID>
         </xmpMM:DerivedFrom>
         <xmpMM:OriginalDocumentID>uuid:971E3EA93164DF118E6D90B556E55533</xmpMM:OriginalDocumentID>
         <xmpMM:History>
            <rdf:Seq>
               <rdf:li rdf:parseType="Resource">
                  <stEvt:action>saved</stEvt:action>
                  <stEvt:instanceID>xmp.iid:F77F117407206811822ADB7C4756B3A7</stEvt:instanceID>
                  <stEvt:when>2013-09-07T20:52:58+02:00</stEvt:when>
                  <stEvt:softwareAgent>Adobe Illustrator CS5</stEvt:softwareAgent>
                  <stEvt:changed>/</stEvt:changed>
               </rdf:li>
            </rdf:Seq>
         </xmpMM:History>
      </rdf:Description>
      <rdf:Description rdf:about=""
            xmlns:xmpTPg="http://ns.adobe.com/xap/1.0/t/pg/"
            xmlns:stDim="http://ns.adobe.com/xap/1.0/sType/Dimensions#"
            xmlns:xmpG="http://ns.adobe.com/xap/1.0/g/">
         <xmpTPg:MaxPageSize rdf:parseType="Resource">
            <stDim:w>331.000000</stDim:w>
            <stDim:h>188.687012</stDim:h>
            <stDim:unit>Points</stDim:unit>
         </xmpTPg:MaxPageSize>
         <xmpTPg:NPages>1</xmpTPg:NPages>
         <xmpTPg:HasVisibleTransparency>False</xmpTPg:HasVisibleTransparency>
         <xmpTPg:HasVisibleOverprint>False</xmpTPg:HasVisibleOverprint>
         <xmpTPg:SwatchGroups>
            <rdf:Seq>
               <rdf:li rdf:parseType="Resource">
                  <xmpG:groupName>Standard-Farbfeldgruppe</xmpG:groupName>
                  <xmpG:groupType>0</xmpG:groupType>
               </rdf:li>
            </rdf:Seq>
         </xmpTPg:SwatchGroups>
      </rdf:Description>
   </rdf:RDF>
</x:xmpmeta>
                                                                                                    
                                                                                                    
                                                                                                    
                                                                                                    
                                                                                                    
                                                                                                    
                                                                                                    
                                                                                                    
                                                                                                    
                                                                                                    
                                                                                                    
                                                                                                    
                                                                                                    
                                                                                                    
                                                                                                    
                                                                                                    
                                                                                                    
                                                                                                    
                                                                                                    
                                                                                                    
                           
<?xpacket end="w"?>
	</metadata>
<linearGradient id="SVGID_1_" gradientUnits="userSpaceOnUse" x1="37.9929" y1="95.8496" x2="37.9929" y2="-90.8438" gradientTransform="matrix(1 0 0 -1 8.5 29.0059)">
	<stop  offset="0" style="stop-color:#A6A6A6"/>
	<stop  offset="1" style="stop-color:#000000"/>
</linearGradient>
<path fill="url(#SVGID_1_)" d="M-113.55,18.223c-0.685,0-1.225,0.528-1.314,1.283l-2.394,18.19l2.394,17.879
	c0.09,0.757,0.63,1.28,1.314,1.28c0.664,0,1.2-0.523,1.307-1.273l0,0v-0.003c0,0,0,0,0,0.003l2.838-17.886l-2.838-18.193
	C-112.347,18.75-112.89,18.223-113.55,18.223z M-100.081,8.284c-0.113-0.783-0.674-1.321-1.361-1.321
	c-0.695,0-1.27,0.556-1.366,1.321c0,0.007-3.219,29.412-3.219,29.412l3.219,28.762c0.093,0.771,0.668,1.328,1.366,1.328
	c0.685,0,1.245-0.544,1.358-1.321l3.663-28.769L-100.081,8.284z M-49.351-18.848c-1.321,0-2.411,1.082-2.473,2.456l-2.566,54.116
	l2.566,34.97c0.065,1.365,1.152,2.445,2.473,2.445c1.314,0,2.404-1.083,2.48-2.452v0.01l2.9-34.973l-2.9-54.116
	C-46.947-17.766-48.037-18.848-49.351-18.848z M-75.605-0.04c-1.015,0-1.844,0.812-1.927,1.892l-2.886,35.858l2.886,34.688
	c0.079,1.073,0.912,1.881,1.927,1.881c1.001,0,1.83-0.808,1.919-1.881l3.281-34.688l-3.281-35.865
	C-73.775,0.771-74.604-0.04-75.605-0.04z M-22.666,75.132c1.637,0,2.972-1.32,3.037-3.01l2.515-34.385l-2.511-72.044
	c-0.065-1.691-1.396-3.011-3.037-3.011c-1.651,0-2.986,1.324-3.038,3.017c0,0.003-2.232,72.039-2.232,72.039l2.232,34.396
	C-25.649,73.812-24.314,75.132-22.666,75.132z M31.964,75.297c2.253,0,4.114-1.857,4.155-4.142v0.028v-0.028l1.754-33.395
	l-1.754-83.207c-0.038-2.28-1.902-4.139-4.155-4.139c-2.26,0-4.124,1.855-4.158,4.143L26.24,37.73
	c0,0.055,1.565,33.446,1.565,33.446C27.84,73.439,29.708,75.297,31.964,75.297z M4.441,75.166c1.961,0,3.543-1.575,3.598-3.584
	v0.027l2.133-33.865L8.035-34.821c-0.055-2.007-1.638-3.577-3.598-3.577c-1.975,0-3.557,1.57-3.602,3.577l-1.896,72.572L0.84,71.603
	C0.884,73.591,2.466,75.166,4.441,75.166z M-62.528,74.85c1.166,0,2.108-0.936,2.197-2.163l3.093-34.977L-60.33,4.433
	c-0.086-1.228-1.028-2.154-2.197-2.154c-1.184,0-2.129,0.934-2.201,2.17l-2.725,33.261l2.725,34.973
	C-64.654,73.914-63.711,74.85-62.528,74.85z M-88.579,72.931c0.854,0,1.545-0.671,1.641-1.603l3.475-33.626l-3.471-34.899
	c-0.1-0.934-0.791-1.606-1.645-1.606c-0.863,0-1.551,0.676-1.641,1.606c0,0.003-3.058,34.899-3.058,34.899l3.058,33.619
	C-90.134,72.257-89.446,72.931-88.579,72.931z M18.148-36.029c-2.129,0-3.839,1.695-3.88,3.865l-1.733,69.918l1.733,33.643
	c0.041,2.14,1.747,3.835,3.88,3.835c2.129,0,3.824-1.688,3.876-3.859V71.4l1.943-33.643l-1.943-69.93
	C21.972-34.334,20.277-36.029,18.148-36.029z M-36.057,75.204c1.472,0,2.687-1.2,2.759-2.734l2.703-34.739l-2.703-66.489
	c-0.076-1.536-1.287-2.733-2.759-2.733c-1.486,0-2.696,1.2-2.762,2.733c0,0.003-2.394,66.489-2.394,66.489l2.397,34.753
	C-38.753,74.004-37.543,75.204-36.057,75.204z M-5.85,71.926v-0.021l2.325-34.161L-5.85-36.73c-0.055-1.849-1.514-3.3-3.316-3.3
	c-1.809,0-3.268,1.448-3.315,3.3l-2.064,74.467l2.067,34.182c0.048,1.834,1.506,3.281,3.312,3.281c1.806,0,3.254-1.447,3.316-3.288
	V71.926z M169.966-5.186c-5.521,0-10.787,1.118-15.582,3.128c-3.205-36.306-33.651-64.786-70.788-64.786
	c-9.088,0-17.944,1.788-25.767,4.815c-3.04,1.176-3.849,2.387-3.879,4.736V70.564c0.034,2.462,1.946,4.516,4.351,4.76
	c0.104,0.011,110.942,0.065,111.662,0.065c22.243,0,40.28-18.033,40.28-40.287C210.243,12.855,192.214-5.186,169.966-5.186z
	 M45.716-57.403c-2.419,0-4.406,1.986-4.44,4.427l-1.816,90.748l1.819,32.934c0.031,2.404,2.019,4.389,4.438,4.389
	c2.414,0,4.398-1.984,4.433-4.423v0.038l1.979-32.938l-1.979-90.755C50.115-55.417,48.13-57.403,45.716-57.403z M-84.731,100.997
	c-4.764-1.118-6.053-1.716-6.053-3.604c0-1.331,1.072-2.711,4.292-2.711c2.752,0,4.901,1.118,6.831,3.096l4.334-4.208
	c-2.834-2.96-6.267-4.722-10.944-4.722c-5.934,0-10.738,3.35-10.738,8.805c0,5.924,3.866,7.686,9.403,8.971
	c5.665,1.287,6.697,2.146,6.697,4.083c0,2.274-1.679,3.265-5.235,3.265c-2.879,0-5.582-0.984-7.691-3.439l-4.333,3.865
	c2.273,3.352,6.659,5.452,11.677,5.452c8.207,0,11.815-3.862,11.815-9.573C-74.676,103.749-79.959,102.118-84.731,100.997z
	 M-57.066,88.849c-8.2,0-13.05,6.353-13.05,15.498c0,9.15,4.85,15.5,13.05,15.5s13.057-6.35,13.057-15.5
	C-44.009,95.201-48.865,88.849-57.066,88.849z M-57.066,113.882c-4.85,0-6.872-4.165-6.872-9.527c0-5.37,2.022-9.535,6.872-9.535
	c4.856,0,6.872,4.165,6.872,9.535C-50.194,109.717-52.209,113.882-57.066,113.882z M-19.746,106.198
	c0,4.809-2.366,7.773-6.185,7.773c-3.821,0-6.14-3.047-6.14-7.855V89.317h-6.016v16.881c0,8.758,4.901,13.651,12.155,13.651
	c7.643,0,12.197-5.024,12.197-13.733V89.317h-6.012V106.198z M12.2,102.033c0,1.675,0.083,5.45,0.083,6.565
	c-0.386-0.774-1.373-2.274-2.102-3.391L-0.47,89.312h-5.755v30.065h5.93v-13.229c0-1.678-0.086-5.455-0.086-6.568
	c0.386,0.77,1.38,2.275,2.102,3.394l11.041,16.403h5.366V89.312H12.2V102.033z M35.259,89.317h-9.403v30.065h8.97
	c7.732,0,15.379-4.47,15.379-15.036C50.204,93.354,43.848,89.317,35.259,89.317z M34.825,113.541h-2.957V95.16h3.178
	c6.356,0,8.978,3.044,8.978,9.187C44.024,109.848,41.141,113.541,34.825,113.541z M68.798,94.813c2.704,0,4.424,1.206,5.497,3.268
	l5.582-2.577c-1.892-3.903-5.328-6.655-10.996-6.655c-7.85,0-13.353,6.353-13.353,15.498c0,9.491,5.279,15.5,13.14,15.5
	c5.455,0,9.06-2.531,11.12-6.783l-5.063-3.006c-1.589,2.662-3.182,3.824-5.885,3.824c-4.51,0-7.131-4.127-7.131-9.535
	C61.706,98.769,64.292,94.813,68.798,94.813z M91.094,89.317h-6.009v30.065h18.067v-5.935H91.094V89.317z M118.991,88.849
	c-8.206,0-13.056,6.353-13.056,15.498c0,9.15,4.85,15.5,13.056,15.5c8.197,0,13.054-6.35,13.054-15.5
	C132.045,95.201,127.189,88.849,118.991,88.849z M118.991,113.882c-4.859,0-6.872-4.165-6.872-9.527c0-5.37,2.013-9.535,6.872-9.535
	c4.847,0,6.862,4.165,6.862,9.535C125.854,109.717,123.838,113.882,118.991,113.882z M156.304,106.198
	c0,4.809-2.356,7.773-6.178,7.773c-3.827,0-6.143-3.047-6.143-7.855V89.317h-6.012v16.881c0,8.758,4.894,13.651,12.154,13.651
	c7.643,0,12.194-5.024,12.194-13.733V89.317h-6.017V106.198z M179.237,89.317h-9.401v30.065h8.971
	c7.735,0,15.375-4.47,15.375-15.036C194.181,93.354,187.828,89.317,179.237,89.317z M178.806,113.541h-2.962V95.16h3.183
	c6.35,0,8.971,3.044,8.971,9.187C187.997,109.848,185.117,113.541,178.806,113.541z"/>
</svg>
