<?xml version="1.0" encoding="iso-8859-1"?>
<!DOCTYPE svg PUBLIC "-//W3C//DTD SVG 1.1//EN" "http://www.w3.org/Graphics/SVG/1.1/DTD/svg11.dtd">
<svg version="1.1" id="Layer_1" xmlns="http://www.w3.org/2000/svg" xmlns:xlink="http://www.w3.org/1999/xlink" x="0px" y="0px"
width="500px" height="500px" viewBox="0 0 500 500" style="enable-background:new 0 0 500 500;" xml:space="preserve">
<path d="M356.074,109.37v239.395h55.711V261.54h59.53v-45.842h-59.53v-60.485H478V109.37H356.074z M232.877,164.444l19.1,93.911
h-39.475L232.877,164.444z M328.062,348.765L270.76,109.37h-68.125l-58.257,239.395h48.388l10.505-49.024h56.984l10.188,49.024
H328.062z M18,347.173c0,0,11.142,3.183,28.333,3.183c25.467,0,47.114-7.003,59.848-25.148
c11.779-16.872,11.779-36.929,11.779-55.073V109.37H62.25v166.494c0,9.551,0,16.555-3.502,21.967
c-3.502,5.412-9.869,7.64-17.509,7.64c-9.232,0-21.011-3.183-21.011-3.183H18V347.173z"/>
<path d="M22.625,428.599l12.321,46.485l13.441-44.805h4.201l12.601,44.805l13.162-46.485h3.92l-15.401,52.646h-3.92l-12.881-45.085
l-13.441,45.085h-4.2l-14.282-52.646H22.625z"/>
<path d="M131.724,428.599v3.36h-23.243v19.882h19.882v3.36h-19.882v22.683h24.363v3.36h-28.563v-52.646H131.724z"/>
<path d="M169.419,428.599c4.061,0,7.631,0,11.201,1.96c3.92,2.171,5.881,5.881,5.881,10.922c0,10.641-8.681,11.761-8.681,11.761
s11.761,1.19,11.761,13.092c0,5.18-2.24,9.311-5.881,11.831c-4.34,3.01-9.941,3.08-12.881,3.08h-14.282v-52.646H169.419z
M160.738,451.841h8.961c2.8,0,5.32,0,7.841-1.399c2.38-1.331,4.48-3.781,4.48-8.611c0-3.431-1.05-6.721-4.201-8.471
c-2.59-1.4-5.46-1.4-8.401-1.4h-8.681V451.841z M160.738,477.884h10.081c2.94,0,6.791,0,10.081-2.521c2.52-1.96,4.2-5.04,4.2-8.961
c0-4.2-1.96-7.28-5.601-9.24c-3.641-1.961-7.281-1.961-10.081-1.961h-8.681V477.884z"/>
<path d="M239.877,428.599v3.36h-22.402v22.402h19.882v3.36h-19.882v23.522h-4.201v-52.646H239.877z"/>
<path d="M281.003,482.084c-14.352,0-22.473-9.521-22.473-26.883c0-17.361,8.121-27.442,22.893-27.442
c14.352,0,22.473,9.521,22.473,26.883C303.896,472.003,295.774,482.084,281.003,482.084z M299.415,454.922
c0-15.962-6.721-23.803-18.202-23.803s-18.202,7.841-18.202,23.803c0,15.961,6.721,23.802,18.202,23.802
S299.415,470.883,299.415,454.922z"/>
<path d="M332.348,428.599l30.242,45.925v-45.925h3.921v52.646h-4.2l-30.523-46.205v46.205h-3.92v-52.646H332.348z"/>
<path d="M424.646,428.599v3.36h-16.242v49.285h-4.2v-49.285h-16.241v-3.36H424.646z"/>
<path d="M470.602,433.639h-0.56c0,0-5.111-2.24-10.852-2.24c-7.351,0-11.271,3.641-11.271,8.961
c0,13.441,24.783,10.082,24.783,27.443c0,10.081-8.401,14.002-17.292,14.002c-7.141,0-12.111-2.521-12.111-2.521v-3.921h0.561
c0,0,5.67,3.08,12.251,3.08c7.631,0,12.392-4.13,12.392-10.431c0-14.422-24.783-10.851-24.783-27.163
c0-7.771,5.601-12.811,15.401-12.811c6.161,0,11.481,1.96,11.481,1.96V433.639z"/>
</svg>
