<?xml version="1.0" encoding="utf-8"?>
<!-- Generator: Adobe Illustrator 16.2.1, SVG Export Plug-In . SVG Version: 6.00 Build 0)  -->
<!DOCTYPE svg PUBLIC "-//W3C//DTD SVG 1.1//EN" "http://www.w3.org/Graphics/SVG/1.1/DTD/svg11.dtd">
<svg version="1.1" id="Layer_1" xmlns="http://www.w3.org/2000/svg" xmlns:xlink="http://www.w3.org/1999/xlink" x="0px" y="0px"
	 width="500px" height="500px" viewBox="0 0 500 500" enable-background="new 0 0 500 500" xml:space="preserve">
<path d="M356.074,130.372v239.395h55.711v-87.226h59.53v-45.842h-59.53v-60.485H478v-45.842H356.074z M232.877,185.446
	l19.101,93.911h-39.475L232.877,185.446z M328.062,369.767L270.76,130.372h-68.125l-58.257,239.395h48.388l10.505-49.024h56.984
	l10.188,49.024H328.062z M18,368.175c0,0,11.142,3.183,28.333,3.183c25.467,0,47.114-7.003,59.848-25.148
	c11.779-16.872,11.779-36.929,11.779-55.073V130.372H62.25v166.494c0,9.551,0,16.555-3.502,21.967s-9.869,7.64-17.509,7.64
	c-9.232,0-21.011-3.183-21.011-3.183H18V368.175z"/>
</svg>
