<svg xmlns="http://www.w3.org/2000/svg" width="331.7" height="89.7"><style type="text/css">.st0{fill:#100E0F;}</style><path class="st0" d="M65.2 39.7v42.5c0 .2 0 .8-.4 1 0 0-9.2 6.5-24.5 6.5-18.4 0-40.3-5.7-40.3-43.7 0-38.1 19.1-46 37.7-46 16.2 0 22.5 3.6 23.6 4.3.4.3.5.7.5 1l-3.1 13.2c0 .7-.7 1.5-1.6 1.3-2.6-.8-6.6-2.5-16-2.5-10.9 0-22.5 3.2-22.5 27.7s11.1 27.4 19.1 27.4c6.7 0 9.2-.8 9.2-.8v-17h-10.9c-.7 0-1.3-.6-1.3-1.3v-13.6c0-.7.6-1.3 1.3-1.3h27.9c.7 0 1.3.6 1.3 1.3zm142.3-35.1c0-.7-.6-1.3-1.3-1.3h-15.7c-.7 0-1.3.6-1.3 1.3v30.3h-24.5v-30.3c0-.7-.6-1.3-1.3-1.3h-15.7c-.7 0-1.3.6-1.3 1.3v82.1c0 .7.6 1.3 1.3 1.3h15.7c.7 0 1.3-.6 1.3-1.3v-35.1h24.5v35.1c0 .7.6 1.3 1.3 1.3h15.7c.7 0 1.3-.6 1.3-1.3v-82.1zm-114 10.7c0-5.7-4.5-10.2-10.1-10.2s-10.1 4.6-10.1 10.2 4.5 10.2 10.1 10.2c5.6.1 10.1-4.5 10.1-10.2zm-1.1 54.1v-37.9c0-.7-.6-1.3-1.3-1.3h-15.7c-.7 0-1.4.7-1.4 1.5v54.3c0 1.6 1 2.1 2.3 2.1h14.1c1.5 0 1.9-.8 1.9-2.1.1-3 .1-14.4.1-16.6zm174.8-39.1h-15.6c-.7 0-1.3.6-1.3 1.3v40.3s-4 2.9-9.6 2.9-7.1-2.5-7.1-8v-35.1c0-.7-.6-1.3-1.3-1.3h-15.8c-.7 0-1.3.6-1.3 1.3v37.8c0 16.3 9.1 20.3 21.6 20.3 10.3 0 18.6-5.7 18.6-5.7s.4 3 .6 3.3c.2.4.6.7 1.1.7h10.1c.7 0 1.3-.6 1.3-1.3v-55.1c0-.8-.6-1.4-1.3-1.4zm64.5 26.7c0 25.3-8.2 32.6-22.5 32.6-12.2 0-18.6-6.1-18.6-6.1s-.4 3.3-.7 3.8c-.3.4-.6.7-1.1.7h-10.9c-.7 0-1.3-.6-1.3-1.3v-82.1c0-.7.6-1.3 1.3-1.3h15.7c.7 0 1.3.6 1.3 1.3v27.8s6-3.9 14.9-3.9c8.8-.1 21.9 3.2 21.9 28.5zm-18.1 1c0-13.4-5.4-15.1-11-14.6-4.4.4-8 2.6-8 2.6v26s3.7 2.5 9.1 2.6c7.5.3 9.9-2.5 9.9-16.6zm-176.1-27.9h-11.8v-15.6c0-.6-.3-.9-1-.9h-16c-.6 0-1 .3-1 .9v16.1s-8 1.9-8.6 2.1c-.5.2-.9.7-.9 1.3v10.1c0 .7.6 1.3 1.3 1.3h8.2v24.3c0 18 12.7 19.8 21.2 19.8 3.9 0 8.6-1.3 9.3-1.5.5-.2.7-.7.7-1.2v-11.1c0-.7-.6-1.3-1.3-1.3-.7 0-2.4.3-4.2.3-5.8 0-7.7-2.7-7.7-6.2v-23.1h11.8c.7 0 1.3-.6 1.3-1.3v-12.7c0-.7-.6-1.3-1.3-1.3z"/></svg>